<svg id="Layer_1" data-name="Layer 1" xmlns="http://www.w3.org/2000/svg" viewBox="0 0 290.95 226.85"><defs><style>.cls-1{opacity:0.85;}.cls-2{fill:#fef4ed;}.cls-3{fill:#fffbf9;}.cls-4{fill:#fdefe4;}.cls-5{fill:#fbe8d9;}.cls-6{fill:#f7d1b5;}.cls-7{fill:#fae0cd;}.cls-8{fill:#f8d6bd;}</style></defs><title>Artboard 10 copy 3</title><g class="cls-1"><g class="cls-1"><path class="cls-2" d="M278.91,241.51c-.84.47-1.84.77-2.66,1.25-1.31-1.47-2.75-2.78-4.13-4.17q-5.49,3.12-10.81,6.4c-1,.09-2,.09-3,.1a25.83,25.83,0,0,0-3,.2c-3,1.07-4-1.87-6.73-3.86-6.14-.15-9.45-.77-13.64.72-2.52,4.89-5,4.39-7.47,2.46-1.28-.94-2.55-2.36-4-3.46a12.16,12.16,0,0,0-4.34-2.52c-2,3.53-4,7-5.81,10.28-.85-1.45-2.17-1.3-3.61-1.14s-2.95.17-4.3-1.66a40.44,40.44,0,0,1-4.83,4.32,14.47,14.47,0,0,1-3.76,2.1,8.77,8.77,0,0,1-5.79-.13,20.15,20.15,0,0,0-2.64,1.92q-1.42-2.13-3-4.3c-2,.83-3,3.12-3.81,5.72a59.61,59.61,0,0,1-2.5,7.78c-1.61-2.25-3.31-4.55-5.26-6.88-.08-1.64-.26-3-.37-4.65,1-3.26,2.29-6.77,3.33-10,1.53-2.16,3.1-4.21,4.71-6.28,3.95.4,5.66-1,5.77-2.58,4.56-7.94-3.19-6.41-5.9-8.26.2-1.56.2-3.18.38-4.73q1.74-1.47,3.49-2.82t3.59-2.71c6.57-.7,7.16-8.48,12.74-3.21.88-1.66,2.1-3.51,3-5.16,1.89-.22,3.62-.59,5.65-1a10.57,10.57,0,0,0,1.39,2.36c-1.2,2.17-2.61,4.26-4,6.35a6.11,6.11,0,0,1-2.46,1.59,3.69,3.69,0,0,1-3.82-.9,45.24,45.24,0,0,1-4.95,12.91,43.77,43.77,0,0,1-6.06,8.41c.27,4.48,3.64-.16,5.31,2.22a26.39,26.39,0,0,1,5.82,1c2.39-5.4,3-6.81,3.65-8.23,1.71.82,3.65,1.72,4.6,4.06,3.86-.71,5.52.2,8.41-.67,3.78-6.05,5.16-3,6.39-3,4.85-3.55,9.3-5.15,13.29-5.1a17.61,17.61,0,0,1,5.82,1,21,21,0,0,1,5.34,2.94c-.92,2.45,1.1,5.18,2.26,7.77,5.35-1.94,9.17-2.3,12.26-7.46a24.06,24.06,0,0,1-1.08-2.58,83.14,83.14,0,0,0-8.37-8.73,21,21,0,0,0-4.71-1.57q-3.66,2-7.2,4.08c0-2.63-1.33-4.85-3.1-6.84s-3.92-3.85-5.41-6c-.18-1.19-.43-2.43-.67-3.7s-.5-2.54-.67-3.87a7.41,7.41,0,0,1,6.62.61c2.06,1.06,4.06,2.66,6.35,3.9,1.91,1.84,3.73,3.66,5.51,5.46l2.62,2.68c.86.9,1.67,1.85,2.49,2.77,1.69.71,3.43,1.47,5.18,2.25l2.62,1.16,2.52,1.24c3.1,2.08,6.83,2.78,9.62,4s4.69,2.89,4.11,6.47c.5,1.14.91,2.19,1.28,3.21s.68,2.07,1,3.15Z"/><path class="cls-3" d="M251.23,238c-1.16-2.59-3.18-5.32-2.26-7.77a21,21,0,0,0-5.34-2.94,17.61,17.61,0,0,0-5.82-1c-4-.05-8.44,1.55-13.29,5.1-1.23,0-2.61-3.07-6.39,3-2.89.87-4.55,0-8.41.67-.95-2.34-2.89-3.24-4.6-4.06-.63,1.42-1.26,2.83-3.65,8.23a26.39,26.39,0,0,0-5.82-1c-1.67-2.38-5,2.26-5.31-2.22a43.77,43.77,0,0,0,6.06-8.41,45.24,45.24,0,0,0,4.95-12.91,3.69,3.69,0,0,0,3.82.9,6.11,6.11,0,0,0,2.46-1.59c1.39-2.09,2.8-4.18,4-6.35l6.39,3,6.18,3.31c1.29-2.47,3.29-1.58,5.12-1.12s3.49.53,4.3-3.89c1.49,2.18,3.63,4,5.41,6s3.11,4.21,3.1,6.84q3.54-2.09,7.2-4.08a21,21,0,0,1,4.71,1.57,83.14,83.14,0,0,1,8.37,8.73,24.06,24.06,0,0,0,1.08,2.58C260.4,235.73,256.58,236.09,251.23,238Z"/><path class="cls-4" d="M233.62,208.9c-.81,4.42-2.5,4.39-4.3,3.89s-3.83-1.35-5.12,1.12L218,210.6l-6.39-3a10.57,10.57,0,0,1-1.39-2.36c-2,.39-3.76.76-5.65,1-.9,1.65-2.12,3.5-3,5.16-5.58-5.27-6.17,2.51-12.74,3.21q-1.82,1.35-3.59,2.71t-3.49,2.82c-.18,1.55-.18,3.17-.38,4.73,2.71,1.85,10.46.32,5.9,8.26-.11,1.61-1.82,3-5.77,2.58-1.61,2.07-3.18,4.12-4.71,6.28-1,3.26-2.32,6.77-3.33,10-1.43.38-2.78.71-4.11,1l-2,.51c-.67.21-1.35.43-2,.67-.49-.13-1-.24-1.47-.35a28.64,28.64,0,0,1-3.57,2.32c-.33-3.28-.77-6.15-1.22-9.41-2.56-3.59-2.17,5.94-4.91,6.72-1.22-1.2-2.47-2.32-3.76-3.49s-2.61-2.33-4-3.42a4.86,4.86,0,0,1-4.88-1.21,30.34,30.34,0,0,1-3.89-4.75c-2.5-3.35-5.23-6.51-8.94-4-.27.2-.57.45-.88.73-1.39-.7-2.8-1.38-4.25-2a37.88,37.88,0,0,0-4.48-1.62c-1.73,1.12-3.32,2.36-4.9,3.57l-2.33,1.86-1.16.91-1,.88c-2.13.31-4.22.66-6.3,1,.1-1.6-.63-2.11-1.22-3-1.48.25-1.88,3-2.79,5.5s-2.34,4.66-5.55,3.68a17.06,17.06,0,0,1-4-.83,71.27,71.27,0,0,1-7.69,3.08c-2.9.55-5.61,1-8.49,1.52l-1.6.25c-1.75-.53-1.77-2.58-1.56-4.76s.62-4.52-.09-5.72c-1.08-.49-2.71.35-4,.39s-2.35-.78-2.07-4.59a23.67,23.67,0,0,1-5.62-1.29c-3.19,2.1-5.3,7.2-7.33,5.12-1.43,0-2.72-.09-4.14-.2-.43,0-.86,0-1.42-.11-2.73,6-4.44,4.1-5.08,2.55a22.48,22.48,0,0,1-2.83.56,16.51,16.51,0,0,1-2.74.21c1.08-3.26.17-3.64-.89-4s-2.29-.73-1.65-3.81c-1.91-2.54-3.5-5.22-5.1-7.66-2.53,1.19-6.46,4.89-9,6.7s-3.64,1.92-.27-3.89c-.49-1.66-2.15-1.53-3.75-1.77s-3.18-.78-3.32-3.55a42.42,42.42,0,0,1-3.57-8.72,49.88,49.88,0,0,1-6.2,1.13c-.8-1-1.7-2.16-2.43-3.24-1.1-.9-2.4-1.59-3.35-2.45-2.18.6-4.35.8-5.31.16s-.52-2.21,2.49-5.12c-.19-.39-.39-.78-.59-1.17-5.9,4.62-3.72-.68-6.9,1.54-2.09,1.25-3.37-1.51-.34-5.24l-.53-1.43A14.67,14.67,0,0,0-17,200c-.54-.59-1-1.2-1.56-1.8-5.38,2.88-4.7-.49-3.85-2.48-.58-1-1.16-2-1.71-3.11a19.14,19.14,0,0,1-1.41-3.32c-1-1.83-1.77-4-2.61-5.88-3.44,1.79-4.76,1-4.33-1.12s2.76-5.44,6.39-8.64c-.08-.92-.17-2-.25-2.91a56.39,56.39,0,0,1-5.9.09c.09-1.19-.29-2.51-.21-3.87a5,5,0,0,1,2.68-4c0-.94-.05-2-.07-3-4.64-1.05.32-2.94,0-4.52,0-.15,0-.47,0-.78L-40,157.49c-4,0-3.56-1.25-1.94-2.71s4.33-3.15,4.82-4.32c.63-1-.6-1-1.51-1.3-5.73,1.23-4.38-.55-2.76-2.56s3.48-4.24-1.29-4.71c-.19-2.36,9.69-2.65,6.19-6.21-5.41,0-6.29-2.26-5.61-5s2.9-5.94,3.66-8.16c-3-1-6.06-2.19-8.8-3.31,4.83-4.86,1.39-8.45-2.67-12.18s-8.75-7.57-6.47-13.17c5.15-3.72-3.1-7.32,2-10.88-9.59-.58-9.07-4.84-8.59-9s.88-8.24-8.91-8.22c-.83-4.12,2.66-9.45-2.58-12.36,6.87-2.52,7.79-2.92,7.48-3.59-2.15-1.48-5.88-.45-9-.49a32.69,32.69,0,0,1,1.6-5.08c6.19,1.1,5.89-2.54,9-3.74-10.86-3.26,7.13-9.08,5.83-14.66-2.86-4-19.24-.52-12.23-7.59-7.5-2.42-7.18-3.28-4.51-8C-69.79,7.64-69.88,4.16-66,.16c2.47-.38,4.63-.91,7.41-1.32,1.2-1,2.72-2,4.24-3,8.6-2.69,15.37-4,18.95-7.57,2.48,0,5,.1,7.47.06C-26.21-8-23.08-7.4-23-5.95l-10.4,4.3C-31.5.17-29.27,2.16-27.36,4c.06,2,.11,4,.17,5.94,3.12.68,6.24,1.37,9,2.09.63.5,1,1,1.6,1.53-1.8,2.85-3.95,5.53-5.75,8.35-2.47,1.61-4.93,3-7.4,4.78l-7.44.43c-.6,3.07-1.18,6.32-1.5,9.37-.62,2.7-.91,5.21-1.56,7.91-1.86.79-4,1.77-5.91,2.74,1.86.81,4,1.61,5.89,2.24,1.53,2.08-4.08,3.71-.06,5.16,6.85-1.85,3.71,2.37,5.78,7.48-1,1.27-1.9,2.37-2.86,3.64,3.34,2.94,6.77,2.15,8.92,3.17l2.69,4.26c5.63-1.38,5.22,1.88,7.35,3.29-3.55,4.38,6.36,5.16,2.78,9.55,1.49,1.8,7.16-.24,7.4,1.58,0,.73,0,1.27-.07,1.82-2.51.56-5,1.12-7.55,1.86,0,.72-.06,1.62,4.14,5.06-2.82.37-5.95.72-9.06.91-.4,1.8-1.11,3.42-1.5,5.22a23.57,23.57,0,0,1,2.7,1.81c.43,3.42.56,6.91.95,10.26-11.45-.71,3.64,6.67-9.38,5.84,0,.47-.06.93-.1,1.39,8.38.12,10-1.16,16.52-.6-.72,1.24-1.14,2.62-1.87,3.9l-9,.25c-7.15,4.36,7.33,1.28,7.13,3.67-1.35,1.4-3,2.75-4.64,4.3-1.9.61-1.64,1.43-1.68,2.14,1.46,1.08,4.92-.08,7.39-.26-.07,1-.15,2.11-.22,3.17,1.74,1.92,8.32-.67,8.84.81-3.63,1.72-6.39,3-9.27,4.32s-5.93,2.55-10.13,4.32c3.38.1,6.73.25,10.1.18,2.74.2.87,2.29,1.45,3.46-3.4,1.67-6.18,3.7-11.7,5a9.38,9.38,0,0,0-1.54,2.61,73.11,73.11,0,0,0,7.4-.45,5,5,0,0,1-1.47,4,29.11,29.11,0,0,0,1.79,5,66.69,66.69,0,0,0-2.49,7.69c2,1,4.36,1.64,6.37,2.47a36.63,36.63,0,0,1,3.86,3.65,70.45,70.45,0,0,0-1.79,12c.13.41.25.83.42,1.39l4-3a35.42,35.42,0,0,1,4.76-.56,22.41,22.41,0,0,1,3.83.75c.41,1.1,1,2.27,1.47,3.47.32.71.59,1.46,1,2.27-1.34,3.13-1.36,4.29-1.09,4.84s.77.56.51,1.55c2.09.1,5.11-3.87,7.16-4.58.4.64.83,1.4,1.26,2A16.41,16.41,0,0,0,9,206.64a3.61,3.61,0,0,0,.66,2.42c.83,1,2.08,1.32,2.46,3.11.87,1,1.66,1.85,2.6,2.76,2.24-1.91,4.44-3.85,6.55-6,2.46-1.76,4.83-3.54,7.19-5.44a15.54,15.54,0,0,0,4.49-1.09c-.33,2.12-.56,4.17-.79,6.31.65,1.78,1.38,3.54,2.08,5.19-.3,1.53-.51,2.69-.7,3.82,1.69-1.65,3.61-3.58,5.22-5.27l2.95-1.72c1-.6,2-1.22,2.89-1.84l.49.19c-1.09,3.48-2,7-2.77,10.21.35.1.68.22,1.15.33,3.41-5.83,2.82-7.1,4.07-9.77l2.15-2.77c3.29.45-2.91,13,2,9.2C52.84,213.64,54,211,55,208.26c.81.12,1.64.24,2.46.31a26.39,26.39,0,0,0,1.32,2.55c.46.82.93,1.61,1.36,2.47a27.19,27.19,0,0,0,5.73,3.3c1.61-3.07,1.45-4.31,1.15-5.58a9.87,9.87,0,0,1,.06-5.8c2.86-6.44,2.6-7.1,2.54-8.1-.67-2-2,3.72-2.91,3.39a10.52,10.52,0,0,0-.09-1.68c.83-3.71,1.65-7.42,2.55-11.47.77-2,1.42-4,2.13-6.38l.69-1.66a7.75,7.75,0,0,0,2.38,1.7,9.6,9.6,0,0,0-.15,3.33c.64,2,1.58-3.7,2.24-3.39A38.62,38.62,0,0,0,78,187.38c.67,1.58,1.31.22,1.88-1.46s1.12-3.66,1.78-3.4l1.07-.1c.6.58,1.22.85,1.86,1.42a5.19,5.19,0,0,1,4.08-2.44c1.51-.15,3.17.07,4.68-.07.69-.54,1.78,1.47,2.81,2.74.52.62,1,1.07,1.37.94.18-.07.32-.28.42-.68l0-.17a1.51,1.51,0,0,1,.12-.2c.08-.14.17-.29.25-.46a9.29,9.29,0,0,0,.43-1.18c3.89.42,7.85-1.36,12.44-2.54,4.38-1.16,8.5-1.55,11.37,1.57a5.72,5.72,0,0,1,.69.84c2.32-2.43,6-3.21,9.69-4,1.86-.42,3.77-.69,5.58-1.22a14.9,14.9,0,0,0,5.06-2.47c1,.42,2,.83,2.94,1.27l2.82,1.39c1.85.93,3.65,1.86,5.42,2.81a22.8,22.8,0,0,1,2.92-.49c1-.07,2-.08,3-.08,2.05,0,4.12.09,6.12,0a27,27,0,0,0,5.73-.66,10.89,10.89,0,0,0,4.93-2.76c1.31,1.08,2.68,2.06,4,3.1s2.68,2.14,3.91,3.28c2.57.7,5.29,1.72,7.58.49,3.52,2.27,6.88,3.49,9.09,5.39s3.16,4.63,1.87,9.62a23.16,23.16,0,0,0,2.89-.51c1.42.57,3.07,1.22,4.47,1.83l1.15.52c2.45-.58,4.82-.86,7.34-1.38l3.27,1.55c1.41,0,2.69.37,3.89.31a34.51,34.51,0,0,0,5.26,1.07c.17,1.33.42,2.61.67,3.87S233.44,207.71,233.62,208.9Z"/><path class="cls-2" d="M150.19,264.84a12.27,12.27,0,0,1-2.92,1.2c-1.47-.54-2.8-1.22-4.31-1.94l-2.13-.13c-.69-.66-1.38-1.32-2.08-1.94l-2.11-1.78c-1.43-1.2-2.91-2.44-4.48-3.83a7.4,7.4,0,0,0-.82,0l-.36.25c-2.34,1.58-4.59,3.2-6.76,4.9-.94.08-2,.2-3,.32-1.08-3.31-2.23-6.92-3.53-10.2a33.83,33.83,0,0,1-4.17.38,12.2,12.2,0,0,1-4.47-.66c0,2.86-.23,5.11-.4,7.67-1.28.86-3.16.58-4.71.79s-2.81.94-3,3.85c-.81,5.93,2.94,6.13,5.21,5.05,3.18-2.85,3.79,2.78,5.6,5-.89,2.39-1.85,4.49-3,7-2.46-.79-6.44,1.63-9.7,2.45s-5.61,0-4.59-7.25c-3.71,1.38-7.53,2.13-12.12.71.11,2.54.43,5,.55,7.57,1.76,2.58,8-1.8,5.94,6.59q-6.07,1.14-12.09,2.08A66,66,0,0,1,71.06,289c1.16-3.66-.74-4.66-1-8.73-3.3,2.36-6.75,4.95-10.26,7.16a34.48,34.48,0,0,0-3.57,6.22,29.47,29.47,0,0,1-3.59,6.14c-2.33.11-4.67.14-7,.15-2.32-2.69-1.57-5.65-.22-8.88s3.33-6.76,3.83-10.51l-1.11-3.09a86.54,86.54,0,0,1-16.24,5.19,5.87,5.87,0,0,1-4.5,2.32,15.31,15.31,0,0,1-4.4-.79,7.06,7.06,0,0,0-4.19-.11c-1.37.5-2.76,1.8-4.16,4.47-3.32-.94-7.2-2.87-11.37-.56C-2,293.56-2.1,296-1,297.81c.53.89,1.34,1.6,1.9,2.4a3,3,0,0,1,.43,3c-2.13,2.39-3.72,2.55-5.15,2.54a4.69,4.69,0,0,0-4.33,1.76c-5-.48-11.4-2.37-17-4.07l-1-.63c-.6-.37-1.2-.73-2-1.27a50.56,50.56,0,0,1-5.37.05c-1.79-.1-3.59-.26-5.4-.44a15.46,15.46,0,0,1-3.59-.86c-.6-2.44-1.29-4.72-1.78-7.18a6.7,6.7,0,0,1-4-1.54,9.94,9.94,0,0,1-2.54-3.23c-.67-1.25-1.25-2.6-1.82-3.92a19.13,19.13,0,0,0-1.94-3.68,15.52,15.52,0,0,1,9.9-4.09,7.7,7.7,0,0,1,4.18,1.11,6.69,6.69,0,0,1,2.81,3.37c2.63-3.45,4.34-2.55,6-1A21.65,21.65,0,0,0-29,282.51a3.3,3.3,0,0,0,3.18.49,13.86,13.86,0,0,0,3.43-7.2,25.61,25.61,0,0,0-.19-6.27c-.37-4.19-.29-8.41,5.36-14.17a14.46,14.46,0,0,1,5.45-2,37.13,37.13,0,0,1,4-.2,5.4,5.4,0,0,0,3.41-1.08A17.86,17.86,0,0,0-.3,246.7c2.23.15,2.17,2.61,2.37,5a6.1,6.1,0,0,0,.77,3.05c.53.74,1.41,1.14,3,.76l4.59-7.67c-4.27-1.92-7.16-6-9.75-9.5s-5-6.55-9.06-6.86c-3.52,7.4-5.76,7-7.86,6.26a3.78,3.78,0,0,0-3.19-.07c-1.21.72-2.21,2-3.38,5.28,1.08,1.77,1.93,3.82,3.26,5.66-5.88,3.23-6.87,1-7.24-1.3-2.37.95-4.9,1.7-7.36,2.56-5.27-.43-6.85-2.58-10.73-5.46-2.22,2.24-3.79,2.58-5,2.08s-2.09-1.94-3-3.11c-1.79-2.32-3.81-3.86-9,4-1.59,1.87-2.59,2.61-3.24,2.63s-1-.67-1.08-1.68c-.27-2,0-5.13-1.26-5.95a4.54,4.54,0,0,0,1.43-2.8,3.63,3.63,0,0,0-.15-1.27,7,7,0,0,0-.44-1.26c-.76-1.66-2.08-3.3-2.31-5.1-3.29,1-5.73-1.38-9.72,2.84a2.68,2.68,0,0,1,.2,2.71,8.88,8.88,0,0,1-1.83,2.16c-1.42,1.39-2.74,2.8-1,5-3.31.86-10.08,10.68-10,2.53-6,6.21-9.71,5.29-12.88,2.82-1.59-1.22-3.1-2.77-4.77-3.91a7.3,7.3,0,0,0-5.64-1.6c-3.44,0-5.91-2-7.66-4.85a38.7,38.7,0,0,1-3.59-10.27,16,16,0,0,1-8.68-2.75,23.55,23.55,0,0,1-6.42-6.64A76,76,0,0,1-146,211c-1.54-3.21-3.11-6.5-4.94-9.65l-7.23,2.17c-.05-.32-.14-1-.16-1.28a76.43,76.43,0,0,0,3.19-10.39c-4.1-.25-7.86-.33-12-.38-3.47-.87-7-1.47-10.77-2.42-.15-1.9-.31-3.89-.48-5.88s-.33-4-.38-5.91c5.38-4.75,9-3.61,12.11-1.24s6,6,9.44,6.9a51.13,51.13,0,0,0,4.9,6.59,58.4,58.4,0,0,0,7.76,2.4c2.43.74,2.55,3.94,3.34,6.29s2.14,3.83,6.61,1.18c-.09,3.65,1.53,5.16,3.63,5.95s4.75.85,6.63,1.76c2.7.15,4.46-1.48,5.57-3.49a16,16,0,0,0,1.73-6c-2.45-2.09-3.07-4.26-2.82-6.31s1.49-4,2.53-5.85,2-3.47,1.8-5-1.55-2.9-4.92-4.31a19.49,19.49,0,0,0,2-6.61c.18-1.15.29-2.32.39-3.48s.25-2.33.37-3.48c.54-4.58,1.34-8.79,5.11-11.22,4.36-3.66,5-6,10.6-7.25-.76-2.4-3.61-4.85-5.54-7.79a9.68,9.68,0,0,1-1.8-4.7,6.66,6.66,0,0,1,2-5c1.31-1.54,4.75-2.12,7.67-3.24a9,9,0,0,0,3.68-2.27,4.52,4.52,0,0,0,.93-1.49,3.52,3.52,0,0,0,0-1.88c-2.76-.56-5.85-1.12-8.91-1.69a2.7,2.7,0,0,1-.21-2.63,4,4,0,0,1,2.08-1.79,9.05,9.05,0,0,1,7.4.4c.56,1-1.4,2.56,1.29,4.16,1.92-.85,4.15-1.69,6.07-2.54,3.11-5-8.1-9.77-8.15-14.66,5.6-.17,9.12-2.39,9.29-5.81-4.56-2-6.24-6.58.36-8.2-1.75-2.71-3.86-5.4-5.61-8.08-2.46-1-5.88-.56-9-.66.93-4.66-1.65-9.87-2.37-14.75s.43-9.45,8.83-13.06c-.29-3.72-12.42,1.58-10.22-3.58,1.87-5.34,20.5-.16,16.46-9l-9,.5c.3-1.55-1.26-4.34,2.77-5.1-1.6-5.68-15.2-.06-10.32-6.63a37.81,37.81,0,0,1-9-2.58c-.65-2.13-1-4.29-1.66-6.25,3.1-.06,5.9.06,9,0,2.46-1.2,4.9-2.57,7.36-3.78.88-2.45-2.65-6.41,2.9-7.56,5.23-1.29,10.78-2.62,16-3.76,2.43-1.77,4.87-3.19,7.29-4.8L-65-7.46l-.13-3.33,1.54-.14c2.49-.06,5,.07,7.47.19,3.75.72,4.25-2.34,7.35-2.45,4.67.45,9,.94,13.41,1.44C-43.29-8-45.75-7-51.23-4.44l-3.1.26c-1.52,1-3,2-4.24,3-2.78.41-4.94.94-7.41,1.32-3.9,4-3.81,7.48-10.26,10.06-2.67,4.72-3,5.58,4.51,8-7,7.07,9.37,3.55,12.23,7.59,1.3,5.58-16.69,11.4-5.83,14.66-3.1,1.2-2.8,4.84-9,3.74a32.69,32.69,0,0,0-1.6,5.08c3.11,0,6.84-1,9,.49.31.67-.61,1.07-7.48,3.59,5.24,2.91,1.75,8.24,2.58,12.36,9.79,0,9.37,4.06,8.91,8.22s-1,8.43,8.59,9c-5.11,3.56,3.14,7.16-2,10.88-2.28,5.6,2.4,9.44,6.47,13.17s7.5,7.32,2.67,12.18c2.74,1.12,5.77,2.33,8.8,3.31-.76,2.22-3,5.41-3.66,8.16s.2,5.05,5.61,5c3.5,3.56-6.38,3.85-6.19,6.21,4.77.47,2.9,2.67,1.29,4.71s-3,3.79,2.76,2.56c.91.3,2.14.35,1.51,1.3-.49,1.17-3.22,2.85-4.82,4.32S-44,157.49-40,157.49l10.18-2.85c0,.31,0,.63,0,.78.31,1.58-4.65,3.47,0,4.52,0,.93,0,2,.07,3a5,5,0,0,0-2.68,4c-.08,1.36.3,2.68.21,3.87a56.39,56.39,0,0,0,5.9-.09c.08.92.17,2,.25,2.91-3.63,3.2-6,6.55-6.39,8.64s.89,2.91,4.33,1.12c.84,1.91,1.65,4,2.61,5.88a19.14,19.14,0,0,0,1.41,3.32c.55,1.06,1.13,2.09,1.71,3.11-.85,2-1.53,5.36,3.85,2.48.54.6,1,1.21,1.56,1.8a14.67,14.67,0,0,1,1.46,1.89l.53,1.43c-3,3.73-1.75,6.49.34,5.24,3.18-2.22,1,3.08,6.9-1.54.2.39.4.78.59,1.17-3,2.91-3.42,4.46-2.49,5.12s3.13.44,5.31-.16c1,.86,2.25,1.55,3.35,2.45.73,1.08,1.63,2.2,2.43,3.24a49.88,49.88,0,0,0,6.2-1.13,42.42,42.42,0,0,0,3.57,8.72c.14,2.77,1.7,3.37,3.32,3.55s3.26.11,3.75,1.77c-3.37,5.81-2.28,5.74.27,3.89s6.47-5.51,9-6.7c1.6,2.44,3.19,5.12,5.1,7.66-.64,3.08.6,3.4,1.65,3.81s2,.75.89,4a16.51,16.51,0,0,0,2.74-.21,22.48,22.48,0,0,0,2.83-.56c.64,1.55,2.35,3.48,5.08-2.55.56.06,1,.07,1.42.11,1.42.11,2.71.16,4.14.2,2,2.08,4.14-3,7.33-5.12a23.67,23.67,0,0,0,5.62,1.29c-.28,3.81.74,4.62,2.07,4.59s3-.88,4-.39c.71,1.2.3,3.53.09,5.72s-.19,4.23,1.56,4.76l1.6-.25c2.88-.48,5.59-1,8.49-1.52a71.27,71.27,0,0,0,7.69-3.08,17.06,17.06,0,0,0,4,.83c3.21,1,4.66-1.21,5.55-3.68s1.31-5.25,2.79-5.5c.59.85,1.32,1.36,1.22,3,2.08-.36,4.17-.71,6.3-1l1-.88,1.16-.91,2.33-1.86c1.58-1.21,3.17-2.45,4.9-3.57a37.88,37.88,0,0,1,4.48,1.62c1.45.6,2.86,1.28,4.25,2,.31-.28.61-.53.88-.73,3.71-2.49,6.44.67,8.94,4a30.34,30.34,0,0,0,3.89,4.75,4.86,4.86,0,0,0,4.88,1.21c1.36,1.09,2.68,2.25,4,3.42s2.54,2.29,3.76,3.49c-.06.61-.1.92-.16,1.54C152.72,258.23,151.33,261.53,150.19,264.84Z"/><path class="cls-5" d="M72,179.61l-.69,1.66c-.71,2.35-1.36,4.36-2.13,6.38-.9,4-1.72,7.76-2.55,11.47a10.52,10.52,0,0,1,.09,1.68c.9.33,2.24-5.37,2.91-3.39.06,1,.32,1.66-2.54,8.1a9.87,9.87,0,0,0-.06,5.8c.3,1.27.46,2.51-1.15,5.58a27.19,27.19,0,0,1-5.73-3.3c-.43-.86-.9-1.65-1.36-2.47a26.39,26.39,0,0,1-1.32-2.55c-.82-.07-1.65-.19-2.46-.31-1,2.69-2.15,5.38-3.31,8.07-5,3.8,1.25-8.75-2-9.2l-2.15,2.77c-1.25,2.67-.66,3.94-4.07,9.77-.47-.11-.8-.23-1.15-.33.63-3.25,1.35-6.81,2.28-10.4-.93.62-1.91,1.24-2.89,1.84l-2.95,1.72c-1.61,1.69-3.53,3.62-5.22,5.27.19-1.13.4-2.29.7-3.82-.7-1.65-1.43-3.41-2.08-5.19.23-2.14.46-4.19.79-6.31a15.54,15.54,0,0,1-4.49,1.09c-2.36,1.9-4.73,3.68-7.19,5.44-2.11,2.1-4.31,4-6.55,6-.94-.91-1.73-1.78-2.6-2.76-.38-1.79-1.63-2.07-2.46-3.11A3.61,3.61,0,0,1,9,206.64a16.41,16.41,0,0,1,1.29-5.19c-.43-.62-.86-1.38-1.26-2-2.05.71-5.07,4.68-7.16,4.58.26-1-.25-1-.51-1.55s-.25-1.71,1.09-4.84c-.42-.81-.69-1.56-1-2.27C.88,194.15.33,193-.08,191.88a22.41,22.41,0,0,0-3.83-.75,35.42,35.42,0,0,0-4.76.56l-4,3c-.17-.56-.29-1-.42-1.39a70.45,70.45,0,0,1,1.79-12,36.63,36.63,0,0,0-3.86-3.65c-2-.83-4.32-1.45-6.37-2.47A66.69,66.69,0,0,1-19,167.5a29.11,29.11,0,0,1-1.79-5,5,5,0,0,0,1.47-4,73.11,73.11,0,0,1-7.4.45,9.38,9.38,0,0,1,1.54-2.61c5.52-1.28,8.3-3.31,11.7-5-.58-1.17,1.29-3.26-1.45-3.46-3.37.07-6.72-.08-10.1-.18l0-.74c3.73-1.27,7.77-2.58,11.8-3.84a44,44,0,0,1,7.58-4.06c-.52-1.48-7.1,1.11-8.84-.81.07-1.06.15-2.12.22-3.17-2.47.18-5.93,1.34-7.39.26,0-.71-.22-1.53,1.68-2.14,1.64-1.55,3.29-2.9,4.64-4.3.2-2.39-14.28.69-7.13-3.67l9-.25c.73-1.28,1.15-2.66,1.87-3.9-6.49-.56-8.14.72-16.52.6,0-.46.07-.92.1-1.39,13,.83-2.07-6.55,9.38-5.84-.39-3.35-.52-6.84-.95-10.26a23.57,23.57,0,0,0-2.7-1.81c.39-1.8,1.1-3.42,1.5-5.22,3.26-3.26,3.9-3.8,4.86-4.35-2.34-3.61,3.8-1.64,7.61-3.48,0-.55,0-1.09.07-1.82-.24-1.82-5.91.22-7.4-1.58,3.58-4.39-6.33-5.17-2.78-9.55-2.13-1.41-1.72-4.67-7.35-3.29l-2.69-4.26c-2.15-1-5.58-.23-8.92-3.17,1-1.27,1.9-2.37,2.86-3.64-2.07-5.11,1.07-9.33-5.78-7.48-4-1.45,1.59-3.08.06-5.16-1.86-.63-4-1.43-5.89-2.24,1.87-1,4-2,5.91-2.74.65-2.7.94-5.21,1.56-7.91.32-3.05.9-6.3,1.5-9.37l7.44-.43c2.47-1.76,4.93-3.17,7.4-4.78,2.79,0,5.9.19,9,.18.33,1.26,1,2.32,1.28,3.58,1.59,3,3.18,6.21,4.73,9.24l2.79-.13c-.29,2.76-.92,5.36-1.24,8.11,2.8.07,5.9.3,8.7.37C2,45.14,1.09,47,.13,48.71c1.54,1.6,5,.36,7.45.65,0,.55,0,1.11,0,1.85s0,1.66,0,2.58l-3.11.1-9,.31c-.91-1.07-1.84-2.31-2.75-3.38L-19.47,52.9c4.9,6.34,6.35,11.22,13.46,12.68C-1.47,71.34-7,80,1,82.31c1.35-2.77,1.38-3.7,1.39-4.44,6.88-1.39,10.85,1.15,8.81,6,6.25-1.18,9.91,1,13.33.81-5.74,4.33,4.17,4.65,2.75,9h7.46l3,1.89c-.78,3.21-1.54,6.6-2,9.8-.11,2.17-.23,4.29-.34,6.41s-.26,4-.38,6.1a10.07,10.07,0,0,1-2,3.07l-1.77,2.41c-1,.6-2.05,1.23-3.07,1.9-2.89,1.8-1.4,2.2.72,2.21s4.91-.23,4.63.57c-1.76,1.45-3.47,2.95-5.2,4.65a9.18,9.18,0,0,0-2.89,3.77c-.55.91-1.43,1.64-5,2.83,3.05-.36,3.69.08,4,.58s.27,1,1.94.7c1.46.92,1.28,2.32,1.18,3.83s-.18,3.09,1.34,4a14.35,14.35,0,0,0,3.14,2.15c0,.31.06.69.1,1.07-2,1.46-3.8,2.77-5.52,4.18-.73,2.08,1.4,1.21,2.92.65a2.1,2.1,0,0,1,1.53,1.12,6.73,6.73,0,0,1,.69,2.1c.13.81.24,1.67.43,2.46a6.84,6.84,0,0,0,.71,2.09c1.39-1.09,2.81-2.11,4-2.91-.63,1.28-1.27,2.5-1.83,3.9.21.7.53,1.42.8,2.08a90.88,90.88,0,0,0,8.37-5.55c.49.22,1.22.18,1.71.37-1.43,1.76-3.13,3.72-4.54,5.49,4.4-2.83,3.81-.76,3.21,1.74a8.33,8.33,0,0,0-.44,3.25c.19.72.92.82,2.61-.38-4,4.77-3,6.44-.93,4.37.06.56-.14,1.4-.06,2-2.51,4.22-5,8.44-7.32,12.73.3,1,.63,2,1,3s.78,1.95,1.2,2.88a7.16,7.16,0,0,0,1.79.25c.6,0,1.18.07,1.74.14,3.66-4.73,7.21-9.58,10.46-14.53.76-2.5,1.4-4.67,2.23-7.15,3.19-4.11,3.77-3.81,4.42-3.52a17.7,17.7,0,0,0,.09,2c1.18-1.5,2.31-3,3.4-4.54-.25,1.46-.35,2.58-.48,3.66,1.87-1.3,3.63-2.69,5.18-3.8-.27,3.16-.51,6.67-.53,9.78C70,179.5,71,179.56,72,179.61Z"/><path class="cls-4" d="M76.43,141.13c-.91,1.87-2.06,4.05-3.14,5.89a1.26,1.26,0,0,0-.13-.09l.66-1.69c1.1-2.67,2.05-5,3.23-8,1.9-4.66,2-4.3.53.52C76.77,140.11,76.54,140.79,76.43,141.13Z"/><path class="cls-4" d="M50.11,190.53c-1.16-.14-3.63,4.78-6.18,8.46,0-.42.25-1.13.26-1.54-.56-.07-1.14-.11-1.74-.14a7.16,7.16,0,0,1-1.79-.25c-.42-.93-.83-1.89-1.2-2.88s-.72-2-1-3c2.34-4.29,4.81-8.51,7.32-12.73a51.21,51.21,0,0,0,3.87-3.4c.42.4.88.73,1.32,1.12-1.25,3-1,3.31-.35,2.86s1.64-1.64,2-1.61c.24,3.72,3.11-2.83,3.44-2.16.29.18.52.32.82.47-.83,2.48-1.47,4.65-2.23,7.15Z"/><path class="cls-4" d="M70.79,133.15c2.07-2,4.13-4,6.15-6,3.72-3.61-1.62,1.8-6.07,7.09C70.83,133.85,70.81,133.5,70.79,133.15Z"/><path class="cls-4" d="M65.69,133.75a13.77,13.77,0,0,1,1.56-2.24.32.32,0,0,0,0-.15c.07-.42.15-.83.25-1.26A12.91,12.91,0,0,1,69.36,128c2.75-1.58-.1-.44,4.47-2.78,4.36-1.94,4.78-2.14,4.87-2.07s-.12.35,2.78-1.42c-.45.3-6.9,4.57-7.3,5.11.82-.44,1.61-.89,2.4-1.36,2.65-1.73-4.39,3.47-9.5,7.54A13,13,0,0,1,65.69,133.75Z"/><path class="cls-6" d="M57.44,139.44c0-.43,0-.83,0-1.26-1.45.76-2.6,1.34-4.06,2,2.62-3,2.67-3.26,4.16-4.49a4.45,4.45,0,0,0-1.4,0,23.09,23.09,0,0,1-2.46-.95c2.84-2.32,3.59-3,.23-1.55,0-.36.11-.72.16-1.07-5.5,2.2-2-.1-1.28-.74-.44-.74-.54-1.61-1-2.35l.15-.68a1.67,1.67,0,0,0,0-.18q3.8-1.23,7.57-2.32c-2.34.14-.59-.77-3.89-.55l.05-.19.52-1.64c.05-.15.08-.27.13-.38a5.62,5.62,0,0,1,.88-.74l.55-.36.29-.18.3-.31c1.93-.4,3.87-.77,6.1-1.11,2.46,0,4.92.07,7.39,0l-.05.63v.2a1.58,1.58,0,0,0,.05.38,4.93,4.93,0,0,0,.27.73c-.12.17-.24.33-.35.51.1.25.5.43.59.67l2.58-.23c-.2.26-.41.56-.61.87,4.33-1.7,3.17-1.21,1.45-.34s-4,2.08-2,1.29c-4.57,2.34-1.72,1.2-4.47,2.78a12.91,12.91,0,0,0-1.84,2.15c-.1.43-.18.84-.25,1.26a.32.32,0,0,1,0,.15,13.77,13.77,0,0,0-1.56,2.24C62.87,135.73,60.3,137.5,57.44,139.44Z"/><path class="cls-4" d="M75,123.35l-2.58.23L77,122.27A13.11,13.11,0,0,0,75,123.35Z"/><path class="cls-4" d="M71.82,122.91c.11-.18.23-.34.35-.51,4.12-.63,4.76-.74,4.36-.62s-1.87.46-1.94.55Z"/><path class="cls-4" d="M70.33,96.38c-.92-.19-1.84-.58-2.75-.78-.48-3.48-1-7-1.15-10.24a26.9,26.9,0,0,1,2.85-2c8.23,4.6,11.88,7,8.51,13Z"/><path class="cls-2" d="M72.41,123.58c-.09-.24-.49-.42-.59-.67l2.77-.58c8-1.67,6.38-1.31,8.79-1.85l-1,.24-2.2.57a21.48,21.48,0,0,0-3.17,1Z"/><path class="cls-2" d="M64.51,120.42c.07-.35.16-.75.22-1.09.21-.1.41-.17.61-.29l.6-.85,1.16-1.69c.77-1.11,1.54-2.23,2.39-3.39l4.66.06a7.8,7.8,0,0,0,1.49,3.12l1,1.46c.16.24.31.48.44.71s.25.57.34.54c.76.44,0,.81-5.54,1.46C69.43,120.49,67,120.47,64.51,120.42Z"/><path class="cls-2" d="M70.08,102c.08-1.75.16-3.68.25-5.62l7.46,0c-1,2-2,3.88-3.05,5.63Z"/><path class="cls-5" d="M223.13,200l-3.27-1.55c-2.52.52-4.89.8-7.34,1.38l-1.15-.52c-1.4-.61-3.05-1.26-4.47-1.83a23.16,23.16,0,0,1-2.89.51c1.29-5,.32-7.66-1.87-9.62s-5.57-3.12-9.09-5.39c-2.29,1.23-5,.21-7.58-.49-1.23-1.14-2.56-2.21-3.91-3.28s-2.72-2-4-3.1a29.86,29.86,0,0,0-.74-3.33c2.25,0,4.53,0,6.78.06l6.8.34c.55-2.1,1-3.91,1.59-6l3.4.63c1.13.21,2.26.47,3.39.7,2.26.48,4.52,1,6.76,1.56a17.71,17.71,0,0,0,1.78,3.1,19.36,19.36,0,0,0,2.17,2.58,33.5,33.5,0,0,0,5.45,4.18c1,.42,2.09.83,3.14,1.28l3.11,1.41,6,2.77c2,1.07,2,2.71,1.55,5.1a63.63,63.63,0,0,0-1.68,9.83C225.82,200.32,224.54,200,223.13,200Z"/><path class="cls-5" d="M101.69,210.4c.26,5.61,1.43,8.59.18,7.51-2.74,3.87-3.18-9-3-10.27A22,22,0,0,0,101.69,210.4Z"/><path class="cls-5" d="M94.81,202.21c-.32-6-.13-6.59,0-7.56,1.28-2.05,1.75,4.18,3,10.29A21.06,21.06,0,0,1,94.81,202.21Z"/><path class="cls-5" d="M92.13,207.37a22.18,22.18,0,0,1,.18,7.64c-.38,1.7-1.23,2.4-2.38,1.64.15-1.62-.66-3.4-1.22-2.67-2.64-1.82-2.13,5.16-5.12,5.34.42,7.31-1.13,6.3-2.69,6.54l-3.62.59a18.1,18.1,0,0,1-3.26,2.1c0-2.94.14-6.21.37-9.48-.32-.28-.6-.91-1-1.19-1.33.5-2.72,1.29-4.07,1.74-.89-4.54.27-5.78,1.31-7.06s2.05-2.6,1.31-7.31c.36,0,1.64-2.76,2.53-3.95s1.49-.83.74,5.28c.45.61.94.88,1.3,1.48,2.24-2.86,1.81-6.06,2.17-8.05,2.57-1.6,3.28,1.53,5.53,2.17.17,5.76,1.51,6.6,3.12,6.23S90.7,206.48,92.13,207.37Z"/><path class="cls-5" d="M76.45,181.25c-.66-.31-1.6,5.35-2.24,3.39a9.6,9.6,0,0,1,.15-3.33,7.75,7.75,0,0,1-2.38-1.7c1.44-5,2.44-7,3.2-7.54s1.28.41,1.61,1.24h.32c.5-1,1-2,1.5-3,.24,0,.41,0,.59,0a61.05,61.05,0,0,0,1.39,6.13c1-2,.73,2.88,1.07,6.08-.66-.26-1.19,1.73-1.78,3.4s-1.21,3-1.88,1.46A38.62,38.62,0,0,1,76.45,181.25Z"/><path class="cls-5" d="M56.06,175.3c-2.69,4.61-3.39,5.17-3.47,4.58s.45-2.36,0-2.42-1.39,1.17-2,1.61-.9.16.35-2.86q2.69-3.5,5.27-7.09l.44.36a7.14,7.14,0,0,0,1.62-1.09C57.35,170.91,56.72,173.1,56.06,175.3Z"/><path class="cls-5" d="M69.49,113.11c-1.78-1.43-3.87-3-5.65-4.6.07-1.35.12-2.51.18-3.66,1.92-.94,4.15-1.89,6.06-2.85l4.66,0c-.2,3.64-.4,7.48-.59,11.13Z"/><path class="cls-7" d="M34.71,93.66H27.25c1.42-4.33-8.49-4.65-2.75-9-3.42.21-7.08-2-13.33-.81,2-4.85-1.93-7.39-8.81-6,0,.74,0,1.67-1.39,4.44-8-2.29-2.44-11-7-16.73-7.11-1.46-8.56-6.34-13.46-12.68l12.14-2.08c.91,1.07,1.84,2.31,2.75,3.38l9-.31,3.11-.1c0-.92,0-1.85,0-2.58s0-1.3,0-1.85c-2.48-.29-5.91,1-7.45-.65C1.09,47,2,45.14,3,43.26c-2.8-.07-5.9-.3-8.7-.37.32-2.75,1-5.35,1.24-8.11l-2.79.13c-1.55-3-3.14-6.23-4.73-9.24-.32-1.26-1-2.32-1.28-3.58-3.1,0-6.21-.17-9-.18,1.8-2.82,3.95-5.5,5.75-8.35-.64-.5-1-1-1.6-1.53-2.8-.72-5.92-1.41-9-2.09-.06-2-.11-4-.17-5.94C-29.27,2.16-31.5.17-33.43-1.65L-23-5.95c3.41-.11,6.83,0,10.25,0a23.37,23.37,0,0,0,1.38-4.52c1.85-.53,4-1.08,5.85-1.43,2.12-1.29,3.92-2.74,6-4.05,2.82.68,6,1.14,8.78,1.83L25.6-17.2c0,.76.08,1.7.12,2.64-4,1.48-7.64,3.11-11.62,4.57L9.39-11.28,6.66-9.37a37.3,37.3,0,0,0-1.34,5.5C2.85-3.67,1.36-1.7-2-.7A49.61,49.61,0,0,1,2.39,1.73c0,1.11.07,2.4.1,3.51,3.44.68,7.19,1.34,10.61,1.84,0,.38,0,.75,0,.94l7.45-.52c0,1.12.06,2.44.08,3.56-4.31,1.23-2.42,3.14,3.23,6.18,0,2.44.07,4.69.1,7.13,0,1.88,0,3.76.06,5.44,1.88,1.6,5.9.27,8.7.5a3.27,3.27,0,0,1,1.55.87,58.69,58.69,0,0,0,3.13,6.1c.3,3.4.94,6.6,1.53,10-.64,3.44-1.29,6.68-1.65,10.09a39.26,39.26,0,0,0-1.64,5.52c-1.57.61-3.14,1.22-4.39,1.81a27.16,27.16,0,0,0-1.65,4.55,41.61,41.61,0,0,0-7.5,2l7.33,4.38c6.26-1.61,8.62,2.7,14.87,1.68a6.9,6.9,0,0,0,1.52.75,20.44,20.44,0,0,0-1.67,3.82,59.75,59.75,0,0,0-6.06,4.59A60.63,60.63,0,0,0,34.71,93.66Z"/><path class="cls-7" d="M190.37,173.13c-4.26.81-8.75,1.81-12.84,2.93a29.86,29.86,0,0,0-.74-3.33l-4.24-2.28-2.14-1.13-2.18-1c-3,5.21-7.1,3-9.9,3-3-.59-6-1.48-9.24-2.36a27.47,27.47,0,0,1-2.61,1.48c-.89.47-1.8.91-2.78,1.34-1.31-1.59-2.38-3.17-3.76-4.76-2.24-.34-4.5-1.07-6.75-1.31a88.29,88.29,0,0,0-9.7-1.2,50.48,50.48,0,0,0,1.11-5.95,77.91,77.91,0,0,1,8.53,4c-1-8.69-5.42-6.68-8.69-7.15-.08-1.55-.16-3.1-.22-4.35,1.92-1.17,3.86-2.26,5.79-3.34l5.71-3.2c3.73,1.6,7.06,3.23,10.33,4.89q7.22,1.85,14.19,4c-1.82,2.9-3.58,5.9-5,8.58a22.35,22.35,0,0,0,3.67,3.47c2.91-.56,5.57-1.13,8.58-1.94a39.78,39.78,0,0,1,2.32-5.63c1.55.53,3.1,1,4.64,1.6s3.08,1.08,4.6,1.71c2.19,1,4.38,1.8,6.51,2.86s4.27,2.07,6.37,3.12C191.4,169.22,190.92,171,190.37,173.13Z"/><path class="cls-8" d="M167.52,163.46c-3,.81-5.67,1.38-8.58,1.94a22.35,22.35,0,0,1-3.67-3.47c1.39-2.68,3.15-5.68,5-8.58,3.14,1.66,6.54,3.08,9.6,4.48A39.78,39.78,0,0,0,167.52,163.46Z"/><path class="cls-8" d="M133.13,162.54a77.91,77.91,0,0,0-8.53-4,50.48,50.48,0,0,1-1.11,5.95c-.92.06-1.84.07-2.76.14-2.21.19-4.43.36-6.64.61s-4.2.43-6.25.71l-3.1.42-2.87.42c-1.29-.91-2.58-1.9-3.7-2.63a4.77,4.77,0,0,0-3-1.05c-.85.46-2,1-2,1.19a2.44,2.44,0,0,1-.69.67,59.07,59.07,0,0,1-5.75,3.4l-.3,0c-1.51-4.67-1.73-4.7-2.41-4.68,0,1.62,0,3.21,0,4.81l-.53,0a11.52,11.52,0,0,1-1.49-6.08C81.28,169.9,80.39,168,80,167c-.25,1-.51,2-.81,3.3-.18,0-.35,0-.59,0-.46,1-1,2-1.5,3h-.32c.09-3,.32-6.32.55-9.66.1-.33.3-1,.44-1.32l1.19.06c.25-2.32.47-4.3.73-6.61a43.91,43.91,0,0,0,1.52-4.51c.1.68.19,1,.27,1.68h.19c.88-3.68,1.18-3.62,1.5-2.66s.59,2.81,1,2.83c.84-.6,1.68-.88,2.49-1.46.82,5.48,1.21,6.32,1.39,5.78s.18-2.48.43-2.62a5.46,5.46,0,0,1,1.31-1.49c.13-1.13.43-1.58.8-1.57h.07l.35-.05.7-.07c.47,0,.94-.05,1.42-.05a28.8,28.8,0,0,1,2.91.19c2.07.22,4,.57,6.37.72a30.51,30.51,0,0,0,7.31-.29c3.17-.37,6.35-.67,9.53-.93l5-.25c.06,1.25.14,2.8.22,4.35C127.71,155.86,132.16,153.85,133.13,162.54Z"/><path class="cls-8" d="M71.46,162.82l-2,6.79c-1.55,1.11-3.31,2.5-5.18,3.8.13-1.08.23-2.2.48-3.66.76-2.78,1.45-5.27,2.49-8.38a30.24,30.24,0,0,1-2.73,2.72,21.77,21.77,0,0,1-.14-4.36c-2.79,4.72-4.26,5-6.13,8.66a7.14,7.14,0,0,1-1.62,1.09l-.44-.36c.51-1.82,1-3.62,1.54-5.43-.62.67-1,.9-1.3.91s-.42-.24-.58-.46c-.32-.43-.58-.91-1.89.35.7-1.88,1.29-3.51,2.09-5.35.52-1.35-.4-.57-1-.22s-.91.26,1.09-2.79a19.87,19.87,0,0,1-1.26-2.2c-.91.47-1.83.9-3,1.58.42-.7.85-1.39,1-1.81-1.51.74-2.77,1.21-4.3,1.89.63-1.11,1.29-2.26,2-3.35-1.76,1-3.78,2.19-5.58,3,1.22-1.7,2.43-3.34,3.69-5-2.73,1.58-3.81,1.5-4.79,1.35s-1.78-.43-4.19.54c-1.78,1-3.51-.43,1.16-3.26,2-1.73,1.12-2,1.06-2.64s.65-1.55,5.82-4.37c1.22.91,6.16-2.8,5.6-1.69-1.58,1.86-2.19,3-2.09,3.36s.94.13,2.24-.58c1.74-.77,3.74-1.84,5.46-2.8-1.62,1.75-3.5,3.76-5.06,5.66-.12.95.09,1.77,4.2-1.38,2.49-3.19,4.83-6,7.54-8.85,5.2-4.27,6.55-5.48,7.92-6.65a12.62,12.62,0,0,0-2.78,4.16c0,.35,0,.7.08,1.06-.2.68-.61,1.7-1,2.74a.29.29,0,0,1,0,.11c4.26-4,3.93-3.78,1.06,2.77a30.6,30.6,0,0,0-.75,4.38c-1.61,2.39-3.3,4.75-5,7-.79,1.79-1.52,3.63-2.23,5.43.31.3,1.69-1.52,3.07-3.54a49.26,49.26,0,0,1,3.33-4.69c5.05-8.42,5.93-9,4.44-3.21-.21.72-.42,1.43-.53,1.78-.46,1.81-.9,3.6-1.31,5.4.38.17.92-.34,0,3.5a6.17,6.17,0,0,0,1.45-1.37l.37.13C72.62,158.75,72,160.79,71.46,162.82Z"/><path class="cls-8" d="M39.15,145.72c.88-1.17,1.77-2.24,2.67-3.33,1.19-.93,2.12-1.63,3-2.37-.89.22-1.78.48-3,.88,0-1.12.12-2.17.22-3.26-5.2,2.16-.84-.75-4.15.15-.5-1,5.3-2.85,6-4.07-4.25,1.12-5.79,1.58-7.33,2.08.09-.73.17-1.53.31-2.51-5.43.62-6.89.06-4.06-.91,1.87-.56,4.05-1.17,5.91-1.64,2.48-2.26.77-2.68-2.47-3.12.12-.7.24-1.41.37-2.11,1.64-.6,3.25-1.09,4.88-1.55-3-.16-5.75-.37-8.76-.7,1.93-.58,4.21-1.3,6.14-1.84.07-.5.15-1.09.28-2l-.56-.09c-.19-.06-.36-.14-.54-.21l-1-.42c-.68-.28-1.36-.56-2.12-.83.12-2.06.25-4.08.38-6.1s.23-4.24.34-6.41c5.32-.7,11-1.6,16.62-2.52a27.7,27.7,0,0,0-1.81,4.56c-6.17,5.14-1.61,6.49,1.16,7.1,1.33,1.28,1.11,2.22,0,3a9.61,9.61,0,0,1-2.14,1.11c-.43.17-.9.34-1.38.51a8.38,8.38,0,0,1-1.51.28,19,19,0,0,0,2.84,1.75L47,122.48c-.85.32-1.69.66-2.53,1,2.37.3,4.73.57,7.09.73-1.46,1-1.51,1.32,4.2.93l-.05.19c3.3-.22,1.55.69,3.89.55Q55.8,127,52,128.2a1.67,1.67,0,0,1,0,.18l-.15.68c.42.74.52,1.61,1,2.35-.7.64-4.22,2.94,1.28.74,0,.35-.12.71-.16,1.07,3.36-1.44,2.61-.77-.23,1.55a23.09,23.09,0,0,0,2.46.95l-5.65,3.12c-.92.86-1.84,1.69-2.71,2.58C44.79,142.92,41.83,144.42,39.15,145.72Z"/><path class="cls-6" d="M37.74,95.55c2.86-1.33,6-2.46,8.85-3.8,7.1,1.51,10.46,2.67,12.09,1,2.61-3.08-5.53-1.52-2.93-4.59.65-1,1-1.74,1.66-2.7l9,0c.18,3.28.67,6.76,1.15,10.24-3.22,2.31-6.45,4.8-9.35,7.28l-5.9,0a27.7,27.7,0,0,0-1.81,4.56c-4.93-.62-9.88-1.24-14.81-2C36.2,102.15,37,98.76,37.74,95.55Z"/><path class="cls-8" d="M34.71,93.66a60.63,60.63,0,0,1,3.4-7.19C40.84,88,43.9,89.28,46.63,91l0,.76c-2.84,1.34-6,2.47-8.85,3.8Z"/><path class="cls-8" d="M44.32,77.31c-6.25,1-8.61-3.29-14.87-1.68l-7.33-4.38a41.61,41.61,0,0,1,7.5-2,27.16,27.16,0,0,1,1.65-4.55c1.25-.59,2.82-1.2,4.39-1.81l5.83,3.47c.87,3,1.71,6,2.88,9.07C44.35,76,44.34,76.56,44.32,77.31Z"/><path class="cls-8" d="M32.74,30.31c-9,2.15-11.49-1.67-13.4-4.74A44,44,0,0,0,24,24.37c0-2.44-.07-4.69-.1-7.13-5.65-3-7.54-4.95-3.23-6.18,0-1.12-.06-2.44-.08-3.56L13.12,8c0-.19,0-.56,0-.94a35.78,35.78,0,0,1,3-3.76l7.43-.54c4.09,2,5.73,5.63,6.14,9.58,1.89,1.38,4.09,2.76,6,4.16-1.81,2.58-4,5-5.79,7.53C30.83,26.07,31.8,28.28,32.74,30.31Z"/><path class="cls-8" d="M9.14,29.65C4.78,28.4,6.3,25.73,6,23.71l9-.51c0,.93,0,1.68,0,2.6C12.84,27,11,28.44,9.14,29.65Z"/><path class="cls-8" d="M2.39,1.73A49.61,49.61,0,0,0-2-.7c3.39-1,4.88-3,7.35-3.17a37.3,37.3,0,0,1,1.34-5.5l2.73-1.91L14.1-10c4-1.46,7.66-3.09,11.62-4.57.69,1.46,1.05,2.94,1.73,4.4-3.07.82-5.84,1.61-8.91,2.61.06,1.68.13,3.55.19,5.24L11.39,1.06Z"/><path class="cls-7" d="M101.87,166.75A3.71,3.71,0,0,1,99,170a15.21,15.21,0,0,1-2.19.35c-.39,0-.8.09-1.2.15l-.61.11-.16,0-.1,0a1.41,1.41,0,0,1-1.65.94,20.42,20.42,0,0,1-2-.62c-1.34-.34-2.4,0-2.84,4.82-1.12,2.32-.7-5.32-1.77-7.47l-2.37.13c0-1.6,0-3.19,0-4.81a48.61,48.61,0,0,0,2.71,4.66,59.07,59.07,0,0,0,5.75-3.4,2.44,2.44,0,0,0,.69-.67c-.09-.2,1.1-.73,2-1.19a4.77,4.77,0,0,1,3,1.05C99.29,164.85,100.58,165.84,101.87,166.75Z"/><path class="cls-7" d="M82.73,182.42l-1.07.1c-.34-3.2-.09-8.08-1.07-6.08a61.05,61.05,0,0,1-1.39-6.13c.3-1.32.56-2.31.81-3.3,1.31-1.66,1.69-4.9,2.08-4.58a11.52,11.52,0,0,0,1.49,6.08C83.33,174.33,84.13,180,82.73,182.42Z"/><path class="cls-7" d="M72,179.61l-.69,1.66A7.55,7.55,0,0,1,69,179.39c0-3.11.26-6.62.53-9.78l2-6.79a36.89,36.89,0,0,0,4.67-.63c.42.39.76,1.08,1.21,1.46-.23,3.34-.46,6.67-.55,9.66-.33-.83-.87-1.76-1.61-1.24S73.42,174.57,72,179.61Z"/><path class="cls-7" d="M61.39,174.29a17.7,17.7,0,0,1-.09-2c-.65-.29-1.23-.59-4.42,3.52-.3-.15-.53-.29-.82-.47.66-2.2,1.29-4.39,2.22-6.91,1.87-3.62,3.34-3.94,6.13-8.66a21.77,21.77,0,0,0,.14,4.36,30.24,30.24,0,0,0,2.73-2.72c-1,3.11-1.73,5.6-2.49,8.38C63.7,171.29,62.57,172.79,61.39,174.29Z"/><path class="cls-7" d="M51,176.21c-.44-.39-.9-.72-1.32-1.12a51.21,51.21,0,0,1-3.87,3.4c-.08-.58.12-1.42.06-2-2.07,2.07-3.1.4.93-4.37-1.69,1.2-2.42,1.1-2.61.38a8.33,8.33,0,0,1,.44-3.25c.6-2.5,1.19-4.57-3.21-1.74,1.41-1.77,3.11-3.73,4.54-5.49-.49-.19-1.22-.15-1.71-.37-3.48,3.07-6.38,5-8,6.27-.1-.21-.21-.42-.33-.72-.27-.66-.59-1.38-.8-2.08.56-1.4,1.2-2.62,1.83-3.9-1.14.8-2.56,1.82-4,2.91a6.84,6.84,0,0,1-.71-2.09c-.19-.79-.3-1.65-.43-2.46a6.73,6.73,0,0,0-.69-2.1,2.1,2.1,0,0,0-1.53-1.12c-1.52.56-3.65,1.43-2.92-.65,1.72-1.41,3.47-2.72,5.52-4.18,0-.38-.07-.76-.1-1.07a14.35,14.35,0,0,1-3.14-2.15c-1.52-.86-1.47-2.46-1.34-4s.28-2.91-1.18-3.83c-1.67.33-1.64-.21-1.94-.7s-.93-.94-4-.58c3.56-1.19,4.44-1.92,5-2.83a9.18,9.18,0,0,1,2.89-3.77c1.73-1.7,3.44-3.2,5.2-4.65.28-.8-2.5-.54-4.63-.57s-3.61-.41-.72-2.21c1-.67,2-1.3,3.07-1.9L33,120.93a10.07,10.07,0,0,0,2-3.07c.76.27,1.44.55,2.12.83l1,.42c.18.07.35.15.54.21l.56.09c-.13.92-.21,1.51-.28,2-1.93.54-4.21,1.26-6.14,1.84,3,.33,5.74.54,8.76.7-1.63.46-3.24,1-4.88,1.55-.13.7-.25,1.41-.37,2.11,3.24.44,4.95.86,2.47,3.12-1.86.47-4,1.08-5.91,1.64-2.83,1-1.37,1.53,4.06.91-.14,1-.22,1.78-.31,2.51,1.54-.5,3.08-1,7.33-2.08-.75,1.22-6.55,3.1-6,4.07,3.31-.9-1,2,4.15-.15-.1,1.09-.18,2.14-.22,3.26,1.21-.4,2.1-.66,3-.88-.91.74-1.84,1.44-3,2.37-.9,1.09-1.79,2.16-2.67,3.33,2.68-1.3,5.64-2.8,8.61-4.3v.5c-5.17,2.82-5.89,3.73-5.82,4.37s.92.91-1.06,2.64c-4.67,2.83-2.94,4.25-1.16,3.26,2.41-1,3.24-.71,4.19-.54s2.06.23,4.79-1.35c-1.26,1.62-2.47,3.26-3.69,5,1.8-.83,3.82-2,5.58-3-.69,1.09-1.35,2.24-2,3.35,1.53-.68,2.79-1.15,4.3-1.89-.19.42-.62,1.11-1,1.81,1.19-.68,2.11-1.11,3-1.58a19.87,19.87,0,0,0,1.26,2.2c-2,3.05-1.72,3.16-1.09,2.79s1.54-1.13,1,.22c-.8,1.84-1.39,3.47-2.09,5.35,1.31-1.26,1.57-.78,1.89-.35.16.22.31.45.58.46s.68-.24,1.3-.91c-.52,1.81-1,3.61-1.54,5.43Q53.64,172.71,51,176.21Z"/><path class="cls-7" d="M19.11,199c-.57-.72-1.1-1.48-1.64-2.22l8.31-9.41.28.42c-.13,1.05,0,1.93,0,3Z"/><path class="cls-7" d="M20.67,188.64c2.33-4.41,2.68-5.93,5.14-8,.48.83.87,1.61.16,3.79C24.07,186.05,22.4,187.41,20.67,188.64Z"/><path class="cls-7" d="M11.69,169.17c-4.21,1.94-2.77-.52-3.48-1.24-.09-.66-.2-1.43-.3-2.08,2.34-1.6,4.69-3.09,7-4.66.74.75,1.18,1.76,1.92,2.47C17,164.43,14.18,166.81,11.69,169.17Z"/><path class="cls-7" d="M14.84,160.29q-1.5-1.2-3-2.52c2.33-2.65,4.46-3.63,7.16-5-.56,2.08.82,3,1.51,4.28Z"/><path class="cls-7" d="M1.29,126.19c3.48-.76,7.25-1.4,10.73-2.07-.12,1.06-.26,2.23-.39,3.3a14.6,14.6,0,0,1-7,.72C2.51,127.83,1.05,127,1.29,126.19Z"/><path class="cls-7" d="M7.8,119.85a4.19,4.19,0,0,0,.53-.94l.5-1.06a15.31,15.31,0,0,0,.79-2.13c3.74-.13,6,.75,6.38,1.87.18.56-.12,1.18-1,1.76a2,2,0,0,1-.73.34c-.28.09-.59.18-.94.26-.69.17-1.53.33-2.51.47A19.52,19.52,0,0,0,7.8,119.85Z"/><path class="cls-7" d="M7.83,97.18c-.23-1.66,3.76-.55,5.95-.91,3.3,2.41,0,6.12-3.46,7.2C.92,104.89,9.27,99.41,7.83,97.18Z"/><path class="cls-6" d="M88.48,154.83c-.25.14-.24,2.07-.43,2.62s-.57-.3-1.39-5.78C87.21,152.63,87.79,153.58,88.48,154.83Z"/><path class="cls-6" d="M79.7,155.78l-1-.11a33.87,33.87,0,0,0-2.58,6.52,36.89,36.89,0,0,1-4.67.63c.77-2.71,1.46-5.09,2.33-8.14l-.37-.13,1.9-6.43c2.06-4.1,2.67-5.64,2.18-2.5a26.73,26.73,0,0,1,3.63-.68c.54-1.89.11,3,.09,6.33A43.91,43.91,0,0,1,79.7,155.78Z"/><path class="cls-6" d="M79,162.39l-1.19-.06c-.14.32-.34,1-.44,1.32-.45-.38-.79-1.07-1.21-1.46a33.87,33.87,0,0,1,2.58-6.52l1,.11C79.44,158.09,79.22,160.07,79,162.39Z"/><path class="cls-6" d="M73.42,154.55A6.17,6.17,0,0,1,72,155.92c.93-3.84.39-3.33,0-3.5.41-1.8.85-3.59,1.31-5.4,1.08-1.84,2.23-4,3.14-5.89-.43,2.23-.88,4.77-1.11,7Z"/><path class="cls-6" d="M69.38,148.45a49.26,49.26,0,0,0-3.33,4.69c-1.38,2-2.76,3.84-3.07,3.54.71-1.8,1.44-3.64,2.23-5.43,1.73-2.29,3.42-4.65,5-7A26.12,26.12,0,0,0,69.38,148.45Z"/><path class="cls-6" d="M58.11,144.49c-4.11,3.15-4.32,2.33-4.2,1.38,1.56-1.9,3.44-3.91,5.06-5.66-1.72,1-3.72,2-5.46,2.8-1.3.71-2.12,1-2.24.58s.51-1.5,2.09-3.36c1.46-.71,2.61-1.29,4.06-2,0,.43,0,.83,0,1.26,2.86-1.94,5.43-3.71,8.25-5.69a13,13,0,0,0,1.39-.78,13.41,13.41,0,0,0-1.43,2v.63C62.94,138.5,60.6,141.3,58.11,144.49Z"/><path class="cls-6" d="M53.66,134.77c2.84-2.32,3.59-3,.23-1.55C57.25,131.78,56.5,132.45,53.66,134.77Z"/><path class="cls-6" d="M55.69,125.33c3.3-.22,1.55.69,3.89.55Q55.8,127,52,128.2q3.8-1.23,7.57-2.32C57.24,126,59,125.11,55.69,125.33Z"/><path class="cls-6" d="M51.68,114.49c-2.77-.61-7.33-2-1.16-7.1A35.82,35.82,0,0,0,51,111C51.2,112.22,51.44,113.3,51.68,114.49Z"/><path class="cls-6" d="M46.63,91a30,30,0,0,0,3.22-2.87C48.08,86,46,84,44.17,81.88a20.44,20.44,0,0,1,1.67-3.82,6.9,6.9,0,0,1-1.52-.75c0-.75,0-1.32,0-1.89,2.85-2,6-3.71,9.16-5.69l0-1.72c-1.19-2.27-2.08-4.35-3-6.44.94-.4,1.87-.62,3.12-1,1.89-1.77,3.77-3.74,6-5.74,6.82,1.35,4.61,5.09,7.35,7.34a82.07,82.07,0,0,0,1.38,8.3c0,1,0,1.93-.07,2.71a39,39,0,0,1-4.69,1c-1,1.18-1.92,2.54-2.88,3.7,2.46.74,4.61,1.3,7.38,1.86.28,1.15.86,2.5,1.13,3.66a26.9,26.9,0,0,0-2.85,2l-9,0c-.66,1-1,1.73-1.66,2.7-2.6,3.07,5.54,1.51,2.93,4.59-1.63,1.72-5,.56-12.09-1Z"/><path class="cls-6" d="M60.77,77.88c1-1.16,1.92-2.52,2.88-3.7a39,39,0,0,0,4.69-1c-.06,2.13-.13,4.46-.19,6.59C65.38,79.18,63.23,78.62,60.77,77.88Z"/><path class="cls-6" d="M44.37,75.42c-4.3-2-2.33-5.47-2.88-9.07l-5.83-3.47a39.26,39.26,0,0,1,1.64-5.52c.36-3.41,1-6.65,1.65-10.09,5.9.35,11.8.72,17.68,1.28a65.3,65.3,0,0,0,3,6.25c-2.2,2-4.08,4-6,5.74-1.25.41-2.18.63-3.12,1,.89,2.09,1.78,4.17,3,6.44l0,1.72C50.37,71.71,47.22,73.47,44.37,75.42Z"/><path class="cls-6" d="M56.63,48.55C50.75,48,44.85,47.62,39,47.27c-.59-3.39-1.23-6.59-1.53-10a58.69,58.69,0,0,1-3.13-6.1c1.54-1.4,3.09-2.61,4.64-3.83,1.53-1.8,7.74-1.17,11.78-1.57,3.12,1,3.12,2.34,3.13,3.49-4,2.31-8,4.6-12.07,7.06,4.66.55,9,1.32,13.35,2.1C55.74,41.86,56.35,45.1,56.63,48.55Z"/><path class="cls-6" d="M41.77,36.33c4-2.46,8-4.75,12.07-7.06.33,3.06,1,6.1,1.28,9.16C50.77,37.65,46.43,36.88,41.77,36.33Z"/><path class="cls-6" d="M32.74,30.31c-.94-2-1.91-4.24-2.86-6.26,1.84-2.56,4-4.95,5.79-7.53,5,.83,10,1.88,14.95,2.75,0,2.11.06,4.4.09,6.51-4,.4-10.25-.23-11.78,1.57-1.55,1.22-3.1,2.43-4.64,3.83A3.27,3.27,0,0,0,32.74,30.31Z"/><path class="cls-6" d="M2.49,5.24c0-1.11-.07-2.4-.1-3.51l9-.67c1.57.81,3.14,1.44,4.73,2.26a35.78,35.78,0,0,0-3,3.76C9.68,6.58,5.93,5.92,2.49,5.24Z"/><path class="cls-6" d="M35.67,16.52c-3.13-.76-2.52-1.93-4.41-3.32l-1.57-.84c-2.23-2.5-4.17-5.2-6.09-7.7,0-.75,0-1.32-.05-1.88l-7.43.54C14.53,2.5,13,1.87,11.39,1.06l7.34-3.37a43.82,43.82,0,0,0,4.67.59c1.81-1.65,3.63-3.3,5.74-5a17.17,17.17,0,0,1-1.69-3.45c-.68-1.46-1-2.94-1.73-4.4,0-.94-.09-1.88-.12-2.64,7-4.21,11.35-3.48,14.72-4.16,3.82,1.77-.91,7.16,6.23,6.94.1,2.87.23,6.13.34,9.19.08,2.29.16,4.78.24,7.27,3.2,3.23,3.23,4.57,3.27,6.3q.12,5.46.22,10.93C45.65,18.4,40.65,17.35,35.67,16.52Z"/><path class="cls-6" d="M64.73,119.33a59.53,59.53,0,0,1-7.54,0,8.9,8.9,0,0,1-.95-.14,2.59,2.59,0,0,1-.68-.45,3,3,0,0,1-.77-1.08c-.64-1.52-.15-3.18-3.11-3.13-.24-1.19-.48-2.27-.69-3.46a35.82,35.82,0,0,1-.47-3.64,27.7,27.7,0,0,1,1.81-4.56l5.9,0c2.9-2.48,6.13-5,9.35-7.28.91.2,1.83.59,2.75.78-.09,1.94-.17,3.87-.25,5.62-1.91,1-4.14,1.91-6.06,2.85-.06,1.15-.11,2.31-.18,3.66,1.78,1.57,3.87,3.17,5.65,4.6-.85,1.16-1.62,2.28-2.39,3.39l-1.16,1.69-.6.85C65.14,119.16,64.94,119.23,64.73,119.33Z"/><path class="cls-5" d="M177.53,176.06a10.89,10.89,0,0,1-4.93,2.76,27,27,0,0,1-5.73.66c-2,0-4.07,0-6.12,0-1,0-2,0-3,.08a22.8,22.8,0,0,0-2.92.49c-1.77-.95-3.57-1.88-5.42-2.81l-2.82-1.39c-1-.44-1.94-.85-2.94-1.27a14.9,14.9,0,0,1-5.06,2.47c-1.81.53-3.72.8-5.58,1.22-3.74.76-7.37,1.54-9.69,4a5.72,5.72,0,0,0-.69-.84c-2.87-3.12-7-2.73-11.37-1.57-4.59,1.18-8.55,3-12.44,2.54a9.29,9.29,0,0,1-.43,1.18c-.08.17-.17.32-.25.46a1.51,1.51,0,0,0-.12.2l0,.17c-.1.4-.24.61-.42.68-.36.13-.85-.32-1.37-.94-1-1.27-2.12-3.28-2.81-2.74-1.51.14-3.17-.08-4.68.07a5.19,5.19,0,0,0-4.08,2.44c-.64-.57-1.26-.84-1.86-1.42,1.4-2.39.6-8.09.85-13.91l.53,0,2.37-.13.3,0c1.15-.54,2.64,1.19,4.21,2.45s3.11,2.09,3.78-.1l.12-.18c.12-.08.29-.17.44-.25l.91-.5,1.83-1c1.2-.67,2.51-1.33,3.8-2l2.87-.42,3.1-.42c2-.28,4.12-.5,6.25-.71s4.43-.42,6.64-.61c.92-.07,1.84-.08,2.76-.14a88.29,88.29,0,0,1,9.7,1.2c2.25.24,4.51,1,6.75,1.31,1.38,1.59,2.45,3.17,3.76,4.76,1-.43,1.89-.87,2.78-1.34a27.47,27.47,0,0,0,2.61-1.48c3.29.88,6.26,1.77,9.24,2.36,2.8.06,6.87,2.23,9.9-3l2.18,1,2.14,1.13,4.24,2.28A29.86,29.86,0,0,1,177.53,176.06Z"/><path class="cls-8" d="M167.52,163.46a31.52,31.52,0,0,0,.71,4.82A31.52,31.52,0,0,1,167.52,163.46Z"/><path class="cls-7" d="M77.34,163.65c.1-.33.3-1,.44-1.32C77.64,162.65,77.44,163.32,77.34,163.65Z"/><path class="cls-7" d="M24,24.37a44,44,0,0,1-4.64,1.2A44,44,0,0,0,24,24.37Z"/><path class="cls-6" d="M65.21,151.25c-3.2,3.64-4.08,3.27-4.47,2.54s-.34-2-2.32-.6c.53-1.14,1-2.28,1.62-3.39.31-.91.37-1.51.73-2.41,3.15-3.54,6-6.84,9.13-10.44a.29.29,0,0,1,0,.11c-1.29,2.14-2.72,4.62-3.8,6.91l.22.46c.09.14.17.29.25.44-.82,2,2-1.89,2.57-2.22C67.75,145.44,66.42,148.36,65.21,151.25Z"/><path class="cls-6" d="M53.36,140.23c.56-1.11-4.38,2.6-5.6,1.69v-.5c.87-.89,1.79-1.72,2.71-2.58l5.65-3.12a4.45,4.45,0,0,1,1.4,0C56,137,56,137.2,53.36,140.23Z"/><path class="cls-6" d="M55.74,125.14c-5.71.39-5.66,0-4.2-.93-2.36-.16-4.72-.43-7.09-.73.84-.34,1.68-.68,2.53-1l2.56-1.33a19,19,0,0,1-2.84-1.75,8.38,8.38,0,0,0,1.51-.28c.48-.17.95-.34,1.38-.51a9.61,9.61,0,0,0,2.14-1.11c1.06-.79,1.28-1.73,0-3,3,0,2.47,1.61,3.11,3.13a3,3,0,0,0,.77,1.08,2.59,2.59,0,0,0,.68.45,8.9,8.9,0,0,0,.95.14,59.53,59.53,0,0,0,7.54,0c-.06.34-.15.74-.22,1.09-2.23.34-4.17.71-6.1,1.11l-.3.31-.29.18-.55.36a5.62,5.62,0,0,0-.88.74c0,.11-.08.23-.13.38Z"/><path class="cls-6" d="M55.69,125.33l.05-.19Z"/><path class="cls-6" d="M46.63,91c-2.73-1.71-5.79-3-8.52-4.52a59.75,59.75,0,0,1,6.06-4.59C46,84,48.08,86,49.85,88.12A30,30,0,0,1,46.63,91Z"/><path class="cls-6" d="M46.59,91.75l0-.76Z"/><path class="cls-6" d="M34.29,31.18a3.27,3.27,0,0,0-1.55-.87A3.27,3.27,0,0,1,34.29,31.18Z"/></g></g></svg>