<svg id="Layer_1" data-name="Layer 1" xmlns="http://www.w3.org/2000/svg" viewBox="0 0 214.19 201.68"><defs><style>.cls-1{opacity:0.85;}.cls-2{fill:#d7e8d9;}.cls-3{fill:#e6f0e6;}.cls-4{fill:#c4dec8;}.cls-5{fill:#f7faf7;}.cls-6{fill:#afd4b5;}</style></defs><title>Artboard 10 copy</title><g class="cls-1"><g class="cls-1"><path class="cls-2" d="M166.57,262.42c-5.21-2.46-.73-2.67-3.81-4.77l1.4-1.68,1.4-1.67a4.92,4.92,0,0,1,1.29.06,15.73,15.73,0,0,1-.74-2.32L163,249.6c3-.68-1.56-2.95-1.81-5.56l-3-4.16-2.76-1.51c-1.23.52-.58,3.93-5.13,0a2.42,2.42,0,0,1-1.26-3l-3.4-3.64-5.65-4.16c-.15-1.44-.17-2.71-.32-4.15.15-.16.29-.34.43-.51a14.33,14.33,0,0,1-.81-2.24l5.7,2.49c2.52.18-3.07-2.76-3-4.14,1.8-.22,3.76-.34,5.55-.57.45-3.79,11.44,2.64,9.78-2.48a36,36,0,0,0,4.44-.88c-.13-1.78-.44-3.68-.59-5.47l1.84-2.26a3.6,3.6,0,0,0,2,.86c.89-1.1-5-5-1.47-6a9.08,9.08,0,0,1,2-.82,22.05,22.05,0,0,1,1.39-3.35l2.47-3.08.47-.57c2-.78,4.67,2.42,6.62,2.62,1.44-.48.58-3.35,4.85-1.1a20.27,20.27,0,0,1,2.89-1.95c-.11-1.84-2.49-3.83-.6-4.2l1.34-1.7.47-.58c-2.9-2.32-1.33-2.63-.26-2.65a11.4,11.4,0,0,1,.72-2.55c3.44,2,1.64-1.42,5.08-.1,1.8-.61,3.55-1.17,5.13-1.84-.93-2.82-7.47-8.84-1.09-4.95,1.89-.39-.16-3.45,2.87-3.64a50,50,0,0,1,4.44-2.31c-.46-1.08-.88-2.23-1.29-3.37l1.29-1.65c.28-.71.39-1.52.63-2.16-1.36-2.27-2.28-4.78,1.8-2.3l.42-.53c-3.5-2.55-.61-2.23-2.41-3.62-1.09-.95-.22-2.07,2.2-1.16l.46-.6a11,11,0,0,0,.64-2.5c-2.89-2.33-1.33-2.67-.26-2.71a21.55,21.55,0,0,1,1.32-3.38c.28-1.05.79-2,1.08-3.09-4-2.57-1.1-3.65,4.17-2l.86-1.13c-1-1.06-1.83-2-2.66-3,.81-.72.93-2.57,3.54-1.57l.86-1.13c-1.91-2.58,1-1,1.32-1.72l.23-.3-5.83-3.58c-4-3.59,2.19-.83,3.31-1.28.58-.08,0-.63-.43-1.13-6.54-4,4.53-.18-.31-4.37.45-.94,5.84,2.88,4.84.09-5.87-4.19.19-4.67,2.11-5.85-1.5-1.43-3-2.92-4.29-4.25,7.65-.22-4.75-9.8.41-12.21,3.78.46-.09-3.67,3.65-3.16-10.67-7.07,5.23-5.32-5.84-12.18.52-1.75,3.81-2.37,1.57-5.24,4.49,1.55,5.11,1.75,5.11,1.4-.85-1.27-3.21-2.24-4.95-3.36a12.37,12.37,0,0,1,2.17-1.2c3.21,2.59,4,1.23,6,1.93-5.28-5,6.3-.57,7-2.91-.54-2.39-10.62-7.11-4.86-7-3.55-3.53-3.15-3.72-.4-4.34,4.28,1.48,5.15.28,8.39.38,1.48.77,2.82,1.38,4.47,2.26.93.12,2.05.34,3.17.56,5.49,2.26,9.6,4.31,12.54,4.47l4.12,2.74c0,1.79,1.54,3.14,1.19,3.63l-6.92-2.4,1.9,4-1.45,2c1.57,1.35,3.13,2.71,4.51,4,.23.39.28.68.5,1.07-1.73.28-3.6.4-5.33.67-1.79-.35-3.53-.77-5.35-1.07l-4.28-2.52a27.65,27.65,0,0,0-3.2,2.6c-1,.69-1.81,1.43-2.84,2.12-1.24-.4-2.71-.83-4-1.17.85.94,1.87,2,2.77,2.85.36,1.25-3.2-.17-1.28,1.75,4.32,1.79,1.51,2.11,1.46,4.59l-2.49.24c1.2,2.19,3.33,3.12,4.31,4.22.18.8.35,1.6.53,2.4,3.51,1.49,2.53,2.47,3.42,3.7-3,.27,2.43,4-.59,4.25.44,1.14,4.13,2.4,3.86,3.11l-.45.6c-1.56-.67-3.11-1.35-4.72-2-.17.24-.39.54,1.23,3.18-1.69-.85-3.55-1.8-5.37-2.81-.62.5-1.39.82-2,1.32a16.44,16.44,0,0,1,1.14,1.56c-.49,1.35-1.17,2.6-1.67,4-6.42-4.15.64,3.62-6.67-1.08l-.4.54c4.73,3,6,3,9.56,5.46-.75.33-1.38.82-2.15,1.14l-5.13-3.12c-5.15-.7,3.75,3.24,2.93,4.32-1.15.16-2.44.16-3.78.22-1.2-.47-1.29,0-1.52.3.48,1.07,2.65,2,4,2.89l-1.09,1.43c.29,1.67,4.5,3.28,4.26,4.28a99,99,0,0,1-12.48-4.68l5,4.71c1.27,1.39-.34,1.46-.44,2.27a29,29,0,0,1-7.15-3.53,4.25,4.25,0,0,0-1.53.29c1.19,1.17,2.37,2.33,3.6,3.44a1.91,1.91,0,0,1-2,.88,15.71,15.71,0,0,0-.89,2.87,31.5,31.5,0,0,0-3.71,1.46c.46,1.43,1.15,2.91,1.61,4.34a22.71,22.71,0,0,1,0,3.41,58.71,58.71,0,0,0-5.54,2.43l-.45.6,2.46,1.53a19.58,19.58,0,0,1,1.58,2.67,15.56,15.56,0,0,1,.66,2.53l-1.34,1.71-.87,1.13c-3.65-.35-2.21.82-3.28.85.33,1.26,2.83,2.4,3.51,3.54l-.88,1.12c-5.45-.7-3.65,1.67-5.54,2.42l-1.34,1.71c1.16,1.19,2.33,2.37,3.54,3.49l3.08,4.09a13,13,0,0,0,.4,2.83l-3.74-.25c-1.13.43-2.26.87-3.34,1.24l-2.21-.53c.77,1,1.67,2.22,2.43,3.25.33,1.19.7,2.49,1,3.69l-.23.29c-1.93-.88-3.91-1.71-5.71-2.43l-.47.59c2.76,2.49,3.71,2.3,5,3.25l1.15,1.54c-1.33,2-7.29-3.09-6.43.14,1.3,1,2.6,2,3.94,3l-1.12,1.41c-1.48.21-2.79.52-4.22.67-1.63.72-3,1.5-4.45,2.28,2.27,3.08,3.21.93,6.37,3.24,2.55,3.09,3,3.14,3.7,3.3,1.61,0-1.25-2.07-.6-2.54a6.1,6.1,0,0,0,1.1.27l5.91,3.83c.85.91,1.75,1.77,2.82,2.73l.63.86a18.29,18.29,0,0,0-2.66,1.68,4.21,4.21,0,0,0-2-.83c-1.6,0,1.25,2.07.6,2.55a46.43,46.43,0,0,0-4.67-.44c-2.68,0,1.59,3.28.39,4.12l-.66.83c-.72.24-1.28.6-2,.84.31,2.91-2.66,4.92-4.42,7.09-.39,1.47-6.43-.9-3.34,2.49-2.83,1.2-.75,6.46-6.14,4.59,1.67,2.83-1.26,4.14.44,7.26-1.58.3-3.11.55-4.64.79,0,2.56-2.78,4,.18,7.55-1.39.06-2.65.3-4.05.36-.48.58-1.18,1.11-.48,2.21-2.65.94-2.78,3-8.63-.57a7.78,7.78,0,0,0,.37,1.16l-.92,1.1-.24.29c.47,1,.77,2,1.24,3l-.68.81a11.43,11.43,0,0,0,.18,1.39,5.48,5.48,0,0,0-.11,1.74C169.25,263.07,167.88,262.77,166.57,262.42Z"/><path class="cls-3" d="M136.41,213.59a5.35,5.35,0,0,1,0-1.66,11.57,11.57,0,0,1,2.23-1.09l.65-.8c2.23-.11,4.24-.28,6.64-.28l.23-.29-.32-4.46.89-1.1c2,1.09,4.26,2.29,6.35,3.31a5.17,5.17,0,0,1,3.12-2.19c-1.42-1.2-2.49-2.17-3.73-3.26,0-1.32,3.21-1.33.34-3.67s-4.2-1.71-4.42-.79c.37,1.83-2.7-.27-4.4-.79-.94-1.14-1.69-2.17-2.58-3.37,2.42-.35.28-6.86,7.29-1.11a4.8,4.8,0,0,1,3.76-3l-4.34-2.49c-2-.5-1.65,2.35-5.51-1.06l2.64-3.27c1.34,0,2.67,0,4,0,1.73,1.48,2.88,1.36,5.33,2.6-.3-1.6-.77-3.32-1.07-4.92-2-2.5-3.48-3.23-5.49-5.67l1.53-1.9c4.25.3,6.65,4.23,11,6.7l2.2.55A65.49,65.49,0,0,1,163,173c-3.34-3.74,4.72-2.93-1.72-7.42.79-1,2.15-2,.65-4.13-7.1-6.29-6.2-2.14-9.47-4-2.94-2.58-.48-2.39-2.86-4.35,0-1.72.62-3.78.84-5.72l.23-.28.46-.58a39.79,39.79,0,0,1-1.59-4.3,4.25,4.25,0,0,1-.23-1.36c1.23.09,2.3.08,3.54.17-1.24-2.78,2.57-2.27,3.91-3.32,4.55,3.21,6.82,7,4.06,7.51,4.95,3-.54,2.69,1.31,5,7.63,5.29,8.56.47,17.24,6.76,4.5,4.61.79,5.32,7.05,8.69.16,2.12-5.32-.58-4.42,2.28l4.19,2.67c2.11-3.67,8-4.84,7.1-9-8.37-3-.38-4.54-8.4-7-.68.53-1.54,1-2.26,1.55-3.08-3.09-2.23-3.51-1.07-3.66l-3.34-3.76c-1.31-2.66-.72-3.42-.68-5.48-7.15-4.24,3.32-3.92-7.33-8.35-5.63-2.84.24-1.66-.05-3,3.17,1.63,2.32-1,3.53-1.52-1.71-1.5-1.91-2.92-5.17-4.44-.47,1.61-4.62-2.45-4.82-.5-1.71-1.5-8.27-4.14-5.12-4.5-9.76-4.89-4.66-6.76-9.22-10.63-3.11-3.05-1.8-4.72-.48-6.11-6.41-5.85-4.63-9.17-5.59-13.67L139.06,88l.18-.23a19,19,0,0,0,3.76-.15c-2.12-1.64-4.1-3.12-6.27-4.7-1.71-1.47-3.49-2.9-5.38-4.48l1.48-2c7.33,2.62,7.3,6.06,10.74,9,.36.9.89,1.9,1.41,2.9,1.19,1.16,2.39,2.31,3.62,3.41,2.24,2.15-2.22,2.21,3.6,5.11-1.77,1,2,3.52,3.42,5.35,2.64,2.32,5.17,2.08,6,1.66-3.07-5.48,9.07,1.39,2.91-5.14,4,.22,3.9-3.76,8.8-2,3,.81,3.77.5,7.08,2.27,0-1.72-4.81-6.61-.15-6.26,2,.09,8.23,4.14,8.63,1.55-1.49-1.14-3.12-2.39-4.73-3.64-.45-2.15,3.85-1,6.19,1.7.09.57-1.37.45-.18,1.95l4,1.16c2.88-.76-2.44-6.37-1.33-8.18,3.24,1.87,5.76,2.28,6.65,1.1-2.13-2.31-2-4.55,2.13-2.84-.37-1.59-.91-3.28-1.26-4.86a30.9,30.9,0,0,0-4.95-3.39c3.32-2.71-.73-11.07,10.55-7.62.78-1.42-7.39-3.87-4.84-4.91,2.43-1.2,11.55,7.26,11.56,2.74l-5.18-3c.57-.43.42-2,2.88-.78.59-2.54-8.48-5.5-4-6a33.5,33.5,0,0,1-4.36-4.16c.22-1,.59-1.86.76-2.78l5,3.27,5.11,1.38c1.15-.52.27-3.16,3.66-1.51,3.26,1.47,6.7,3.05,9.92,4.58,1.82.3,3.56.71,5.34,1.07l5,1.6.84-1.14.88.52c1.4.89,2.74,1.85,4.09,2.8,1.88,1.61,3,.79,4.73,1.9l7,5.38-10.75-3.43-1.79-1c-1.12-.22-2.24-.44-3.17-.56-1.65-.88-3-1.49-4.47-2.26-3.24-.1-4.11,1.1-8.39-.38-2.75.62-3.15.81.4,4.34-5.76-.14,4.32,4.58,4.86,7-.7,2.34-12.28-2.1-7,2.91-2-.7-2.79.66-6-1.93a12.37,12.37,0,0,0-2.17,1.2c1.74,1.12,4.1,2.09,4.95,3.36,0,.35-.62.15-5.11-1.4,2.24,2.87-1.05,3.49-1.57,5.24,11.07,6.86-4.83,5.11,5.84,12.18-3.74-.51.13,3.62-3.65,3.16-5.16,2.41,7.24,12-.41,12.21,1.33,1.33,2.79,2.82,4.29,4.25-1.92,1.18-8,1.66-2.11,5.85,1,2.79-4.39-1-4.84-.09,4.84,4.19-6.23.36.31,4.37.39.5,1,1,.43,1.13-1.12.45-7.3-2.31-3.31,1.28l5.83,3.58-.23.3c-.32.76-3.23-.86-1.32,1.72l-.86,1.13c-2.61-1-2.73.85-3.54,1.57.83.95,1.66,1.9,2.66,3l-.86,1.13c-5.27-1.6-8.16-.52-4.17,2-.29,1.05-.8,2-1.08,3.09a21.55,21.55,0,0,0-1.32,3.38c-1.07,0-2.63.38.26,2.71a11,11,0,0,1-.64,2.5l-.46.6c-2.42-.91-3.29.21-2.2,1.16,1.8,1.39-1.09,1.07,2.41,3.62l-.42.53c-4.08-2.48-3.16,0-1.8,2.3-.24.64-.35,1.45-.63,2.16l-1.29,1.65c.41,1.14.83,2.29,1.29,3.37a50,50,0,0,0-4.44,2.31c-3,.19-1,3.25-2.87,3.64-6.38-3.89.16,2.13,1.09,4.95-1.58.67-3.33,1.23-5.13,1.84-3.44-1.32-1.64,2.05-5.08.1a11.4,11.4,0,0,0-.72,2.55c-1.07,0-2.64.33.26,2.65l-.47.58-1.34,1.7c-1.89.37.49,2.36.6,4.2a20.27,20.27,0,0,0-2.89,1.95c-4.27-2.25-3.41.62-4.85,1.1-1.95-.2-4.67-3.4-6.62-2.62l-.47.57L167,198.05a22.05,22.05,0,0,0-1.39,3.35,9.08,9.08,0,0,0-2,.82c-3.52,1.06,2.36,4.94,1.47,6a3.6,3.6,0,0,1-2-.86l-1.84,2.26c.15,1.79.46,3.69.59,5.47a36,36,0,0,1-4.44.88c1.66,5.12-9.33-1.31-9.78,2.48-1.79.23-3.75.35-5.55.57l-.85-.58Z"/><path class="cls-4" d="M213,213.5l-.63-.86c-1.07-1-2-1.82-2.82-2.73l-5.91-3.83a6.1,6.1,0,0,1-1.1-.27c-.65.47,2.21,2.51.6,2.54-.66-.16-1.15-.21-3.7-3.3-3.16-2.31-4.1-.16-6.37-3.24,1.41-.78,2.82-1.56,4.45-2.28,1.43-.15,2.74-.46,4.22-.67l1.12-1.41c-1.34-1-2.64-2-3.94-3-.86-3.23,5.1,1.86,6.43-.14l-1.15-1.54c-1.34-.95-2.29-.76-5-3.25l.47-.59c1.85.66,3.92,1.37,5.94,2.14-.33-1.2-.7-2.5-1-3.69-.76-1-1.66-2.22-2.43-3.25l2.21.53c1.08-.37,2.21-.81,3.34-1.24l3.74.25a13,13,0,0,1-.4-2.83l-3.08-4.09c-1.21-1.12-2.38-2.3-3.54-3.49l1.34-1.71c1.89-.75.09-3.12,5.54-2.42l.88-1.12c-.68-1.14-3.18-2.28-3.51-3.54,1.07,0-.37-1.2,3.28-.85l.87-1.13,1.34-1.71a15.56,15.56,0,0,0-.66-2.53,19.58,19.58,0,0,0-1.58-2.67l-2.46-1.53.45-.6a58.71,58.71,0,0,1,5.54-2.43,22.71,22.71,0,0,0,0-3.41c-.46-1.43-1.15-2.91-1.61-4.34a31.5,31.5,0,0,1,3.71-1.46,15.71,15.71,0,0,1,.89-2.87,1.91,1.91,0,0,0,2-.88c-1.23-1.11-2.41-2.27-3.6-3.44a4.25,4.25,0,0,1,1.53-.29,29,29,0,0,0,7.15,3.53c.1-.81,1.71-.88.44-2.27l-5-4.71.22-.3,7.12,3.58a34.62,34.62,0,0,1,5.14,1.4c.24-1-4-2.61-4.26-4.28l1.09-1.43c-1.37-.93-3.54-1.82-4-2.89.23-.3.32-.77,1.52-.3,1.34-.06,2.63-.06,3.78-.22.82-1.08-8.08-5-2.93-4.32l5.13,3.12c.77-.32,1.4-.81,2.15-1.14-3.54-2.5-4.83-2.49-9.56-5.46l.4-.54c7.31,4.7.25-3.07,6.67,1.08.5-1.35,1.18-2.6,1.67-4a16.44,16.44,0,0,0-1.14-1.56c.62-.5,1.39-.82,2-1.32a17.13,17.13,0,0,1,3.75.17c-.53-2.06,2.53.74,5.11,1.42l.45-.6c.27-.71-3.42-2-3.86-3.11,3-.27-2.44-4,.59-4.25-.89-1.23.09-2.21-3.42-3.7-.18-.8-.35-1.6-.53-2.4-1-1.1-3.11-2-4.31-4.22l2.49-.24c0-2.48,2.86-2.8-1.46-4.59-1.92-1.92,1.64-.5,1.28-1.75-.9-.87-1.92-1.91-2.77-2.85,1.29.34,2.76.77,4,1.17,1-.69,1.82-1.43,2.84-2.12a27.65,27.65,0,0,1,3.2-2.6l4.28,2.52c1.82.3,3.56.72,5.35,1.07,1.53,1,3.29,2.17,5,3.29-.13.53,0,1.11-.17,1.63.12,1.55.24,3.18.36,4.73l1.6.95c-.84.81-1.82,1.45-2.67,2.25l4.82,3.2c-1,.29-2,.58-2.9.81.49,1.07,2.72,1.88,4.05,2.84-.13.19-.27.37-.45.61l-.62.85-1.78-1.06L255,103.31c-.25-.68-.48-1.42-.75-2.1l-7.35-3.59c1.25,3.87.92,6,4.62,9,1.23,3.53-3.89,4.56.14,8.12,1.38-.48,1.61-.79,1.79-1,4.22,1.92,5.9,4.15,3.67,5.09,3.82,1.77,5.41,3.78,7.41,4.89-4.23-.52,1.35,3-.4,4l4.26,2.57,1.32,1.68a29.28,29.28,0,0,0-3.25,2.62l-3.09,4.13c-1.47.61-2.83,1.38-4.14,2.08l-2.69.48c-4.92.7,2.4,3.67,1.17,4.95l-5.07,1.59c-3.84.65-2.64,3.15-6.89.89,3,2.9.12,2.9,1.79,4.46.11,3.26-3.44,4.16-3.51,7.66a36.34,36.34,0,0,0-.45,4l-.65.84c-1.37-.58-2.57-1.06-3.8-1.48-1.36.75-.36,1.82.29,2.67.28,2.67-3,4.94-4.26,7.2a27.41,27.41,0,0,1,2.23,1.84c-.9.15-1.76.24-2.7.45l-1.3,1.67c1.11,1.59,2.4,3.29,3.73,4.94-.2.59-.22,1.29-.42,1.88-1.14-.55-2.41-1.26-3.56-1.81,3.39,5.72-6.08,1.78-3.83,6.6-2.69-2.25-3.94-1-2.87.31-.41.19-1,.2-1.35.39-2.41-1.27-4.83-2.54-7.29-3.75l-4,2.08c-.39.83-.55,1.7-.89,2.47l6.78,7.38,4.19,1.34c1.69,2.52,1.13,3.24.61,3.89a13.08,13.08,0,0,0-1.53.28l1.48,3.1c-.94-.15-1.7-.19-2.4-.28a50.22,50.22,0,0,1-.54,5.31l-6.42-1.19Z"/><path class="cls-5" d="M182.2,179c-7.73-1.88-6.87-5-3.76-3.22Z"/><path class="cls-2" d="M115.81,196.47c1.22.46,2.56,1.1,3.74,1.62l3.9,3a16,16,0,0,0,.83,2.23c-1.61-.64-3.22-1.28-4.78-2C116.08,199.38,117.11,198.13,115.81,196.47Z"/><path class="cls-2" d="M132.82,206.94a20.43,20.43,0,0,1,2.85-.23c-1.71-2.46-.37-2.46-.13-3.09.22-.91.66-1.77.93-2.74l1.36-1.65c.72-.23,1.27-.58,2-.81,1-.29.53-3.26,4.21-1.9,1.7.52,4.77,2.62,4.4.79.22-.92,1.63-1.67,4.42.79s-.33,2.35-.34,3.67c1.24,1.09,2.31,2.06,3.73,3.26a5.17,5.17,0,0,0-3.12,2.19c-2.09-1-4.3-2.22-6.35-3.31l-.89,1.1.32,4.46-.23.29c-2.4,0-4.41.17-6.64.28l-.65.8Z"/><path class="cls-2" d="M95.05,173.4a6.65,6.65,0,0,0,1.09.3c2.41,1.6,5,3.31,7.42,4.92.15.79,1.81,2.33.61,2.49L96.06,177C97.66,176.7,93.49,173.67,95.05,173.4Z"/><path class="cls-2" d="M216,195.17c.43-.88-2.19-2.55-4-4.25.27,0,.66.16.93.15.34-.77.5-1.64.89-2.47l4-2.08c2.46,1.21,4.88,2.48,7.29,3.75.41.8,1,1.78,1.55,2.69l-1.12,1.43c-3.58-1.12-1.07,1-1.36,1.73-2.66.71,1,2.41.38,2.84l-.65.83-4.19-1.34C218.45,197.32,217.2,196.25,216,195.17Z"/><path class="cls-3" d="M95.05,173.4c-4.63-4.1-2.8-4.7-1.3-4.58,1.52.74,3,1.49,4.61,2.18,1.12,1.87,1,4-2.22,2.7A6.65,6.65,0,0,1,95.05,173.4Z"/><path class="cls-6" d="M213.43,174.35l1.11-1.42,6,3.76-.23.3c-.63.13-1.13.44-1.76.57Z"/></g></g></svg>