<svg id="Layer_1" data-name="Layer 1" xmlns="http://www.w3.org/2000/svg" xmlns:xlink="http://www.w3.org/1999/xlink" viewBox="0 0 91.17 200.57"><defs><style>.cls-1{fill:none;}.cls-2{clip-path:url(#clip-path);}.cls-3{opacity:0.85;}.cls-4{fill:#7e8c7b;}.cls-5{fill:#e6f0e6;}.cls-6{fill:#d7e8d9;}.cls-7{fill:#c4dec8;}.cls-8{fill:#f7faf7;}.cls-9{fill:#8fc69c;}.cls-10{fill:#afd4b5;}</style><clipPath id="clip-path"><rect class="cls-1" y="-617.71" width="340.16" height="538.58"/></clipPath></defs><title>detail-cuople-lt</title><path class="cls-4" d="M47.45,70.14c.83,2.71,1.86,5.65,4.93,7.33a19.65,19.65,0,0,0,2.86,1.16l5.21,1.8a26.33,26.33,0,0,0-.52-4.14,6.84,6.84,0,0,0-1.24-3c-1.79-2.21-8.64-3.91-12.1-4.49"/><path class="cls-4" d="M54.77,76C34.8,59,20.61,38.52,9.69,17.74,6.41,11.5,3.58,5.16,1-1.24c0-.08-.2-.05-.18,0C5,10.47,11.11,21.84,18,32.82A200.4,200.4,0,0,0,41.59,63.94a156.38,156.38,0,0,0,13,12.18c.09.08.24,0,.15-.11Z"/><path class="cls-4" d="M4.64,6.43A45.25,45.25,0,0,0,11,15.58a28,28,0,0,0,10,6.4c4.83,2,9.49,3.7,13.26,6.71s6.26,6.38,9.2,9.7c0,0,.15,0,.11,0C39,32,33.29,26.52,24.39,23.06c-4.76-1.85-9.2-3.7-12.5-6.87A44,44,0,0,1,4.72,6.4s-.11,0-.08,0Z"/><path class="cls-4" d="M13.29,25.17c4.31,3.75,1.23,8.47-.26,12.54A21.27,21.27,0,0,0,11.82,47a25.22,25.22,0,0,0,9.07,16.75c.06.06.17,0,.11-.08-6.08-5.8-9.44-12.77-9-20.08.25-3.86,2.13-7.25,3.27-11,.81-2.64.65-5.42-1.92-7.54-.06-.05-.16,0-.1.07Z"/><path class="cls-4" d="M25.55,23.44c4.56,1.49,11.07.82,15.67-.33s8.29-3.34,10.22-6.52c0-.07-.06-.13-.14-.14a42.94,42.94,0,0,0-14.37,1.16c-4.38,1.15-6.61,4.11-10.38,6-.16.08,0,.28.15.2a26.91,26.91,0,0,0,4.68-2.89,12.6,12.6,0,0,1,4.23-2.68,36,36,0,0,1,7.19-1.47c1.81-.2,5-.7,6.79-.21,1-.15,1.3.19.89,1a9.89,9.89,0,0,1-.86,1,13.46,13.46,0,0,1-2.13,1.72,21.82,21.82,0,0,1-7.16,2.87c-4.4,1-10.4,1.55-14.75.25,0,0-.08.05,0,.06Z"/><path class="cls-4" d="M33,28.35c1,3.18-1.87,6.27-1.38,9.53a10.63,10.63,0,0,0,4.19,6.6.17.17,0,0,0,.27-.07c.64-5.23,4-12.21-2.58-16.26-.08-.06-.21,0-.13.09a8.72,8.72,0,0,1,3.81,8.35,35.65,35.65,0,0,1-.83,4.53,13.36,13.36,0,0,1-.4,2c-.27.71.1,1-.9.41-1.4-.8-2.32-2.93-2.72-4.06a8,8,0,0,1-.4-4c.37-2.41,2.31-4.7,1.25-7.14,0-.08-.21-.05-.18,0Z"/><path class="cls-4" d="M11.65,48.56c.63,3.3-1.1,6.78-4.48,9C5.05,59,2.22,60.12,1.33,62.1c-.09-1.2-.17-2.4-.26-3.6a6.24,6.24,0,0,1,.38-3.39,7.17,7.17,0,0,1,1.64-1.92,30.36,30.36,0,0,1,8.56-4.63"/><path class="cls-4" d="M13.57,37.37A12.19,12.19,0,0,0,15.81,45,8.24,8.24,0,0,0,18.3,47.4c2,1.24,4.86,1.67,5.67,3.71.05.11.26.09.28,0a10.17,10.17,0,0,0-2.51-8.2c-2-2.21-5.67-3.52-8-5.57-.08-.06-.24,0-.17.09,1.74,1.81,4.42,3,6.58,4.47a9,9,0,0,1,3.22,4.18c.2.49,1.31,4.41.7,4.51.23,0-1.5-1.37-1.69-1.49-1.53-.88-3.36-1.32-4.71-2.39-3-2.39-4-6.19-3.94-9.31,0-.07-.14-.07-.14,0Z"/><path class="cls-4" d="M14.85,57.2a19.84,19.84,0,0,0,2.25,4.93,9.92,9.92,0,0,0,4.84,3.73c2.61.94,5.91.9,8.08,2.31a16.25,16.25,0,0,1-1.67-3.23,7.52,7.52,0,0,0-1.42-2.82c-2.56-2.7-8.92-1.95-11.86-4.45"/><path class="cls-4" d="M34.77,55.4c3.44,6.18,14.13,5.2,21.37,4.1.12,0,.14-.12.07-.19-2.36-2.07-5.08-4.2-9.11-4.1s-7.45,1.87-11.46,1c-.12,0-.17.1,0,.14,2.41.67,4.8.17,7.2-.31a20.91,20.91,0,0,1,5.31-.62,11.44,11.44,0,0,1,6.48,2.85c1.05.83,1,.87-.34,1.28a16.55,16.55,0,0,1-2.75.36,34.66,34.66,0,0,1-7.2.16c-4-.4-7.76-2-9.48-4.7,0,0-.05,0,0,0Z"/><path class="cls-4" d="M41,64.18c.91,2.28-.68,3.51-2.42,5.19a4.32,4.32,0,0,0-1.4,3.2,7.79,7.79,0,0,0,2.41,6.17.16.16,0,0,0,.2,0c1.77-2.16,4.8-4.22,5-6.84s-1.6-5.6-3.69-7.75c0,0-.17,0-.13.06,1.67,2.33,3.69,4.78,3.55,7.5A5.84,5.84,0,0,1,42.93,75c-.64.74-1.83,2.56-2.82,3-1.62.72-2.54-3.31-2.62-4a5.13,5.13,0,0,1,1.83-5c1.76-1.53,2.82-2.85,1.86-4.87,0-.07-.19,0-.16,0Z"/><path class="cls-4" d="M42.77,36.35c2.66,4.54,9.7,7.53,16.51,7-1.75-2.74-3.84-5.73-7.75-6.83-3.18-.91-7-.35-9.94-1.59"/><g class="cls-3"><g class="cls-3"><path class="cls-5" d="M25.48-28.78c.25.19.48.44.73.63l-.73,1.43,3.21,2.59c.29.57.45,1.16.74,1.74.64.81-.19,1.31-.55,2.25.46,1.83.51,2.88,1.28,4.12,3.5,1.09-.1,3.19-.38,5.12l3.59,1.63c-.92.68.38,1.79-.82,2.79,2.61,2.42,2.43,3.73,2,5.06a7,7,0,0,0,.56,1L33.54.61c.42,1.5,2.85,1.71,4.25,2.63-.89.62-1.77,1.25-2.68,1.93l-1.59,0-3.1-1.66L28.59,1.55c.3-1.33-.09-1.94-.62-2C25.49-2.25,25.74.29,25,1.06c-.5-.14-1-.23-1.54-.38L21.92-1.78c-.06-2-2.6-2.49-.85-3.92l-1.67-1a11.65,11.65,0,0,0-.35-1.63,2.83,2.83,0,0,0,.74-.33c.73.4,1.42.86,2.12,1.32.32.29,1.05,1.14.23,1.87A15.36,15.36,0,0,1,29-1.42c1.5,0,0-1.23.86-1.73a11.72,11.72,0,0,1,.39-2L27.51-6.34a2.72,2.72,0,0,1,1.31-1.47c-.31-1.24,0-1.78-.4-2.68-2.11-1.1-1.18-1.57-1.22-1.95-2.73-2.86-2.9-5.09-1.9-7.28.84.16,1.55-.54,2.26-1-1.11-1.47-1.63-2.52-3.54-3.1a5.25,5.25,0,0,1-.68.42c-.67.88-1.34,1.75-1.92,2.67a6.54,6.54,0,0,0-.11,1.35l1.81,1.94c-1.68.11-2.37,1.72-3.6,2.57-.75.1-1.53.26-2.37.33-.83-1.34.22-2.28.73-3.53.88-1.08,1.74-2.09,2.6-3.1.15-1,.31-2,.45-3,.6-1.87-.71-4.09,1.57-4.22.55-.41,1.05-.69,1.57-1Z"/><path class="cls-6" d="M19.52-14.9c2.91.43.31,1.91,2,2.68l-.87,1.75-.87,1.76a2.83,2.83,0,0,1-.74.33,11.65,11.65,0,0,1,.35,1.63l1.67,1c-1.75,1.43.79,1.91.85,3.92L23.48.68c.5.15,1,.24,1.54.38.72-.77.47-3.31,2.95-1.54.53.09.92.7.62,2l1.83,1.91,3.1,1.66c0,1.11,0,2.11,0,3.22l-.26.54a11.08,11.08,0,0,1,.4,1.55l-3.19-.3c-1.44.6,1.67,1.3,1.59,2.42-1,.71-2.16,1.39-3.18,2.11-.35,3.17-6.47,1.31-5.63,4.93a30.9,30.9,0,0,0-2.54,2.06c0,1.4.18,2.83.24,4.22l-1.06,2.39c-.43-.32-.73-.15-1.1-.08-.52,1.17,2.74,2.46.77,4.41a9.51,9.51,0,0,1-1.12,1.28C18.26,34.93,18,36,17.7,37s-.91,2.16-1.37,3.27l-.26.62c-1.08,1.24-2.61-.47-3.7,0-.81.85-.28,2.91-2.68,2.47a27.88,27.88,0,0,1-1.57,2.53c.08,1.47,1.42,2.3.4,3.23L7.82,51l-.24.63c1.64.92.79,1.7.2,2.08A19.62,19.62,0,0,1,7.47,56c-1.94-.42-.84,1.72-2.75,1.82C3.77,58.93,2.82,60,2,61.1c.63,2,4.44,4.62.82,3.68-1,1,.26,2.77-1.33,4C.81,70,.09,71.18-.71,72.31c.31.73.63,1.52.93,2.31-.17.59-.37,1.25-.54,1.84s-.09,1.39-.17,2c.88,1.35,1.62,3.06-.72,2.57l-.17.6c2.05.77.53,1.6,1.59,2.06.65.36.32,1.6-1,1.79l-.18.66a16,16,0,0,0,0,2.3c1.72.79,1,1.67.44,2.12-.06,1.1-.13,2.19-.25,3.28s-.12,2-.12,3c2.34.5,1,2.5-1.76,3.37L-3,101.45c.65.45,1.2.88,1.75,1.31-.28.92-.05,2.46-1.46,2.75-.07.4-.15.87-.21,1.28,1.36,1.28-.3,1.2-.32,2l0,.34,3.39.41c2.53,1.19-.89,1.59-1.34,2.43-.25.32.15.5.43.73,3.81.39-2,2.11,1,3.35,0,.94-3.27.26-2.25,2,3.56.76,1,3.78.38,5.6,1,.46,2,1,2.89,1.42-1.63,1.81-.5,3.21.84,4.62s2.93,2.86,2.18,5c-1.71,1.41,1,2.73-.59,4.09,3.22.15,3.09,1.73,3,3.29s-.11,3.08,3.13,2.92c.39,1.5-.72,3.54,1.15,4.49-2.2,1.07-2.5,1.24-2.37,1.49.76.49,2,0,3,0a11.89,11.89,0,0,1-.37,1.89c-2.09-.24-1.88,1.09-2.88,1.62,3.72.89-2,3.55-1.32,5.61,1.11,1.41,6.36-.48,4.41,2.35,2.62.6,2.56.91,1.91,2.74-2,1.22-1.78,2.49-2.81,4.13-.79.25-1.47.55-2.36.84-.34.42-.77.86-1.21,1.32-2.66,1.42-4.82,2.24-5.76,3.78-.81.14-1.65.21-2.47.35-.8-1.33-1.89-1.43-2-2l3.15-2.13c-.76-.61-1.66-1.27-2.38-1.91l-.38-2.29c-1.08-.15-2.16-.3-3.13-.47-.24-.18-.38-.37-.62-.54.43-1.18,1-2.3,1.47-3.46.75-.71,1.51-1.33,2.25-2.09l2.45-.4c.06-1.2.11-2.45.07-3.62.11-1.05.14-2,.26-3.07.59-.34,1.28-.77,1.87-1.18-.64-.26-1.39-.52-2-.72-.58-.76,1.21-1.49-.15-2-2.24.84-1.28-.84-2.1-2.77.31-.5.57-.94.87-1.44-1.19-1.08-2.31-.74-3-1.1-.35-.54-.64-1.08-1-1.62-1.85.59-1.76-.68-2.49-1.22,1.12-1.73-2.19-2-1.07-3.72-.51-.7-2.39.13-2.47-.59v-.72c.84-.22,1.67-.45,2.51-.75,0-.28,0-.63-1.4-2,.94-.14,2-.28,3-.35.12-.7.34-1.33.47-2a6.51,6.51,0,0,1-.9-.71c-.13-1.34-.15-2.68-.27-4,3.82.35-1.19-2.65,3.16-2.25l.06-.62c-2.79-.21-3.37.4-5.51,0,.26-.63.43-1.33.7-2l3,.18c2.46-1.8-2.41-.92-2.29-2.18A24,24,0,0,1-7.51,118c.65-.16.59-.58.64-.93-.44-.66-1.62-.42-2.44-.56l.22-1.67c-.47-1.25-2.73-.69-2.82-1.63a27.41,27.41,0,0,1,6.7-1.69c-1.07-.54-2.12-1.14-3.19-1.7-.85-.59-.1-1.35-.19-2.07a8,8,0,0,1,4-.18,3.47,3.47,0,0,0,.67-.89c-.77-.45-1.53-.9-2.31-1.29a2.1,2.1,0,0,1,.82-1.56c.06-.9,0-1.82,0-2.73.59-.89,1.08-1.86,1.58-2.75-.42-1-1-1.92-1.37-2.91a25.71,25.71,0,0,1-.44-2.84c.83-1.39,1.73-2.76,2.51-4.21l.16-.67-1.42-.31a10,10,0,0,1-1.1-1.59A11.52,11.52,0,0,1-6.08,84c.17-.6.35-1.28.53-2l.35-1.28c1.91-1.11,1.06-1.53,1.61-2-.27-.92-1.68-.92-2.12-1.6l.38-1.27c2.92-1.48,1.78-2.77,2.73-4.09L-2,69.89c-.7-.55-1.39-1.11-2.1-1.6L-6,66a14.68,14.68,0,0,0-.36-2.22l2-1.15c.59-.77,1.18-1.53,1.74-2.23l1.22-.35-1.46-1.83c-.22-.87-.45-1.82-.67-2.7l.12-.32c1.07,0,2.18,0,3.18,0l.24-.65C-1.53,53.47-2,54-2.8,53.64l-.67-.88c.66-2.14,4.06,0,3.52-2.34-.74-.4-1.47-.79-2.23-1.12l.59-1.56c.81-.68,1.52-1.38,2.31-2,.89-1.15,1.67-2.26,2.45-3.36-1.29-1.79-1.8.3-3.57-.55-1.44-1.7-1.71-1.58-2.08-1.49-.9.57.71,1.29.35,1.9a2.09,2.09,0,0,0-.61.15l-3.32-1.18A15.47,15.47,0,0,0-7.65,39.9L-8,39.4a23.63,23.63,0,0,0,1.47-2.31,1.31,1.31,0,0,0,1.11,0c.89-.57-.71-1.31-.34-1.92A23,23,0,0,0-3.15,34c1.5-.92-.88-2.19-.21-3.28l.38-.91c.41-.44.73-.91,1.14-1.35C-2,26.18-.3,23.54.75,21.22c.25-1.33,3.63-1.29,1.94-3.1,1.63-1.86.58-5.51,3.61-5.66-.9-1.79.83-3.73-.06-5.75C7.16,6,8,5.31,8.92,4.65c.07-2.05,1.73-4.08.14-6,.8-.47,1.54-1,2.34-1.5.3-.61.72-1.24.36-1.92,1.56-1.54,1.71-3.26,5-2.11a8,8,0,0,0-.17-.81l.57-1.15.14-.31c-.23-.7-.37-1.35-.6-2.05l.42-.85c0-.39,0-.73-.05-1.06a6.58,6.58,0,0,0,.13-1.42C18-14.64,18.77-14.8,19.52-14.9Z"/><path class="cls-5" d="M35.18,15.25a7.35,7.35,0,0,1-.06,1.34,14.06,14.06,0,0,1-1.3,1.53l-.39.84c-1.27.75-2.43,1.48-3.78,2.2l-.14.31.1,3.48-.52,1.14c-1.14-.25-2.37-.54-3.54-.73a7.12,7.12,0,0,1-1.79,2.71c.79.53,1.38,1,2.06,1.48,0,1.06-1.82,2.05-.23,3s2.35.08,2.48-.72c-.19-1.35,1.52-.6,2.47-.71.52.63.93,1.22,1.42,1.91-1.38,1-.18,5.55-4.09,3.11a6.61,6.61,0,0,1-2.11,3.56c.8.23,1.63.41,2.43.64,1.1-.21.92-2.38,3.08-.84-.5,1.13-1,2.27-1.47,3.41-.73.42-1.47.84-2.18,1.2-1-.65-1.61-.18-3-.41.19,1.18.44,2.4.65,3.58,1.12,1.38,2,1.48,3.11,2.79-.26.66-.53,1.33-.8,2-2.34,1.11-3.73-1.24-6.18-1.83l-1.22.26c.07,1.77.06,3.57,0,5.36,1.92,1.89-2.46,3.89,1.2,5.35-.38,1-1.07,2.32-.17,3.49,4.1,2.63,3.43-.35,5.27,0,1.7,1.07.36,1.72,1.74,2.48.08,1.35-.11,3.14-.11,4.72l-.11.29-.2.6c.44.92.8,1.86,1.14,2.8a3.77,3.77,0,0,1,.23,1c-.65.34-1.21.7-1.86,1,.84,1.72-1.16,2.6-1.76,3.87-2.62-.93-4.17-3.11-2.73-4.44-2.82-.71.09-2.29-1.05-3.47-4.38-1.59-4.53,2.55-9.54.57-2.69-2.11-.78-4-4.31-4.52-.23-1.68,2.85-1.4,2.23-3.39l-2.39-.71a28.82,28.82,0,0,1-2.24,5.16c-.77,1.62-1.37,3.16-1,4.71,4.61-.58.57,3.53,5,2.6.31-.67.72-1.31,1-2.05,1.86,1.39,1.45,2,.86,2.55l2,1.81c.91,1.64.66,2.45.86,4.09,4.09.77-1.28,4.26,4.61,3.9,3.18.2,0,1.37.35,2.28-1.78-.13-1,1.58-1.57,2.44,1,.54,1.31,1.55,3.13,1.53,0-1.39,2.62.22,2.47-1.33,1,.53,4.65.22,3.12,1.59,5.5.25,3.17,3.4,6,4.64,2,1.14,1.59,2.78,1.14,4.24a6.87,6.87,0,0,1,3.55,3.5c.59,1.31.8,2.74,1.48,4.1l2.46.32,0,.21a9.85,9.85,0,0,0-1.71,1.39c1.3.38,2.5.68,3.81,1,1.08.39,2.18.72,3.37,1.12-.12.57-.19,1.18-.28,1.75-3.88.79-4.62-1.44-6.77-2.24a17,17,0,0,0-1.21-1.46c-.77-.37-1.55-.74-2.34-1.06-1.45-.69.62-2.3-2.64-2.27.64-1.3-1.55-1.78-2.56-2.57a2.42,2.42,0,0,0-3.15,1c2.44,2.79-4.5,2.35-.41,4.75-1.93,1.33-1,4.12-3.63,4.8-1.54.58-1.82,1.11-3.71,1.14.38,1.26,3.66,2.82,1.5,4.43-.89.74-4.65.38-4.17,2.42.92.22,1.95.43,3,.65.74,1.33-1.41,2.31-3.1,1.36-.18-.37.48-.9-.42-1.48l-2,.86c-1.06,1.79,2.63,3.57,2.7,5.31-1.87.06-3,.87-3.08,2.12a2.09,2.09,0,0,1,1.34,1.52c.07.57-.31,1.13-1.4,1.45.63,1,1.35,1.92,2,2.86a9.17,9.17,0,0,0,3,.14c-.28,1.67.75,3.47,1.06,5.17s.12,3.32-2.58,4.82c.2,1.32,4.08-.87,3.49,1s-6.85.63-5.14,3.68l3-.46c0,.55.59,1.49-.72,1.89.75,2,5-.51,3.68,2a13,13,0,0,1,3.12.53c.31.71.54,1.43.84,2.08l-3,.39c-.76.52-1.5,1.11-2.26,1.65-.19.91,1.23,2.12-.54,2.79s-3.4,1.45-5.06,2.11c-.7.75-1.41,1.39-2.11,2.1l-2.21,1.57c.08.38.17.83.25,1.22l-.5.13c-.82.15-1.64.23-2.47.31-1.28-.07-1.25,1.1-2.27,1.3-1.56.07-3,.11-4.51.13,2.36-1.83,3.11-2.29,4.76-3.53l1-.25c.44-.46.87-.9,1.21-1.32.89-.29,1.57-.59,2.36-.84,1-1.64.79-2.91,2.81-4.13.65-1.83.71-2.14-1.91-2.74,2-2.83-3.3-.94-4.41-2.35-.66-2.06,5-4.72,1.32-5.61,1-.53.79-1.86,2.88-1.62a11.89,11.89,0,0,0,.37-1.89c-1,.05-2.24.52-3,0-.13-.25.17-.42,2.37-1.49-1.87-1-.76-3-1.15-4.49-3.24.16-3.25-1.36-3.13-2.92s.24-3.14-3-3.29c1.64-1.36-1.12-2.68.59-4.09.75-2.11-.88-3.54-2.18-5s-2.47-2.81-.84-4.62c-.92-.44-1.89-1-2.89-1.42.6-1.82,3.18-4.84-.38-5.6C-3,116.27.23,117,.25,116c-3.07-1.24,2.79-3-1-3.35-.28-.23-.68-.41-.43-.73.45-.84,3.87-1.24,1.34-2.43l-3.39-.41,0-.34c0-.76,1.68-.68.32-2,.06-.41.14-.88.21-1.28,1.41-.29,1.18-1.83,1.46-2.75-.55-.43-1.1-.86-1.75-1.31l.25-1.28C.07,99.3,1.39,97.3-.95,96.8c0-1,.12-2,.12-3s.19-2.18.25-3.28C0,90.12.7,89.24-1,88.45a16,16,0,0,1,0-2.3l.18-.66C.53,85.3.86,84.06.21,83.7c-1.06-.46.46-1.29-1.59-2.06l.17-.6c2.34.49,1.6-1.22.72-2.57.08-.62.07-1.33.17-2s.37-1.25.54-1.84c-.3-.79-.62-1.58-.93-2.31C.09,71.18.81,70,1.5,68.8c1.59-1.25.33-3,1.33-4,3.62.94-.19-1.68-.82-3.68.81-1.11,1.76-2.17,2.71-3.29,1.91-.1.81-2.24,2.75-1.82a19.62,19.62,0,0,0,.31-2.32c.59-.38,1.44-1.16-.2-2.08L7.82,51l.7-1.84c1-.93-.32-1.76-.4-3.23a27.88,27.88,0,0,0,1.57-2.53c2.4.44,1.87-1.62,2.68-2.47,1.09-.46,2.62,1.25,3.7,0l.26-.62c.46-1.11.9-2.16,1.37-3.27s.56-2.08.79-3.14a9.51,9.51,0,0,0,1.12-1.28c2-2-1.29-3.24-.77-4.41.37-.07.67-.24,1.1.08L21,25.87c-.06-1.39-.2-2.82-.24-4.22a30.9,30.9,0,0,1,2.54-2.06c-.84-3.62,5.28-1.76,5.63-4.93,1-.72,2.15-1.4,3.18-2.11l.48.21Z"/><path class="cls-7" d="M-8,39.4l.36.5a15.47,15.47,0,0,1,1.59,1.32l3.32,1.18a2.09,2.09,0,0,1,.61-.15c.36-.61-1.25-1.33-.35-1.9.37-.09.64-.21,2.08,1.49,1.77.85,2.28-1.24,3.57.55-.78,1.1-1.56,2.21-2.45,3.36-.79.61-1.5,1.31-2.31,2l-.59,1.56c.76.33,1.49.72,2.23,1.12.54,2.36-2.86.2-3.52,2.34l.67.88c.77.32,1.27-.17,2.86.93l-.24.65c-1,.1-2.17.24-3.3.31.22.88.45,1.83.67,2.7l1.46,1.83-1.22.35c-.56.7-1.15,1.46-1.74,2.23l-2,1.15A14.68,14.68,0,0,1-6,66l1.89,2.28c.71.49,1.4,1,2.1,1.6L-2.6,71.8c-.95,1.32.19,2.61-2.73,4.09l-.38,1.27c.44.68,1.85.68,2.12,1.6-.55.43.3.85-1.61,2L-5.55,82c-.18.67-.36,1.35-.53,2a11.52,11.52,0,0,0,.59,1.84,10,10,0,0,0,1.1,1.59l1.42.31-.16.67c-.78,1.45-1.68,2.82-2.51,4.21a25.71,25.71,0,0,0,.44,2.84c.42,1,1,1.93,1.37,2.91-.5.89-1,1.86-1.58,2.75,0,.91.07,1.83,0,2.73a2.1,2.1,0,0,0-.82,1.56c.78.39,1.54.84,2.31,1.29a3.47,3.47,0,0,1-.67.89,8,8,0,0,0-4,.18c.09.72-.66,1.48.19,2.07,1.07.56,2.12,1.16,3.19,1.7l0,.34-4,.2a12.29,12.29,0,0,1-2.66,1.15c.09.94,2.35.38,2.82,1.63l-.22,1.67c.82.14,2-.1,2.44.56,0,.35,0,.77-.64.93a24,24,0,0,0-1.65,1.92c-.12,1.26,4.75.38,2.29,2.18l-3-.18c-.27.62-.44,1.32-.7,2,2.14.39,2.72-.22,5.51,0l-.06.62c-4.35-.4.66,2.6-3.16,2.25.12,1.33.14,2.67.27,4a6.51,6.51,0,0,0,.9.71c-.13.7-.35,1.33-.47,2a8.62,8.62,0,0,1-1.61,1.7c.8,1.4-1.25.65-2.52,1.38v.72c.08.72,2-.11,2.47.59-1.12,1.75,2.19,2,1.07,3.72.73.54.64,1.81,2.49,1.22.33.54.62,1.08,1,1.62.74.36,1.86,0,3.05,1.1-.3.5-.56.94-.87,1.44.82,1.93-.14,3.61,2.1,2.77,1.36.48-.43,1.21.15,2,.64.2,1.39.46,2,.72-.59.41-1.28.84-1.87,1.18-.12,1-.15,2-.26,3.07,0,1.17,0,2.42-.07,3.62l-2.45.4c-.74.76-1.5,1.38-2.25,2.09-.92.08-2,.11-3,.21-.17-.48-.43-.88-.59-1.36l-2-3.52-.92.12c0-1.11.11-2.16.12-3.26l-2.91,0c.25-.77.49-1.54.74-2.23-.57-.61-1.67,0-2.5-.12l-.06-.75-.06-1,1-.09,3-.28c.34.41.66.89,1,1.3l4-1.05c-1.78-2.39-2.38-4.29-4.79-4.79-1.67-2.23.11-5.72-2.61-6.58a4.29,4.29,0,0,0-.39,1.78c-2.27.61-3.63-.39-3-2.35-2.07.5-3.33-.37-4.46-.28,1.89-1.77-1.42-1.87-1-3.64h-2.49l-1-.78c.24-1.32.46-2.71.65-4,.1-1.77.2-3.46.3-5.22.49-1.29.95-2.63,1.37-3.9l1.1-1.74c2.05-3-1.88-2-1.58-3.77l2-3.82c1.64-2.39.7-4,3.09-4-1.92-1.14-.56-2.47-1.62-3.06-.61-2.79,1-5.15.55-8.23-.08-1.14-.12-2.42-.29-3.65.07-.29.14-.65.22-1a17.84,17.84,0,0,0,2.09-.35,1.65,1.65,0,0,0-.47-2.19c-.42-2.17,1-5.56,1.43-8a8,8,0,0,1-1.31-.68c.45-.49.88-.92,1.36-1.48l.53-2c-.72-.92-1.54-1.88-2.35-2.76.06-.59,0-1.2.09-1.78.64,0,1.36.12,2,.14-1.1-1.79-.33-2.78.53-3.71s1.82-1.8,1.09-3.43c1.56.89,2.16-.66,1.52-1.36.21-.32.49-.53.7-.85,1.36.17,2.72.35,4.1.45l2.06-3.21c.18-.83.23-1.63.38-2.39-1.34-1.23-2.63-2.53-3.95-3.76l-2.33.38a2.89,2.89,0,0,1-.44-3.07c.3-.21.51-.51.83-.79-.3-.7-.6-1.4-.89-2.1.51-.21.93-.45,1.32-.62,0-1.56.08-3.13.22-4.67,1.16-.43,2.42-.82,3.57-1.24Z"/><path class="cls-8" d="M9.61,57.39c4.25-1.07,3.9,1.7,2.15,1.34Z"/><path class="cls-6" d="M37.22.88c.92.48,1.13,1.45,1.56,2.44.49.65.85,1.32,1.25,1.93L38.62,6c.1.48.21,1,.3,1.51a15.83,15.83,0,0,1-2.09-.2,16.52,16.52,0,0,0-.92-1.42,4.07,4.07,0,0,0-.8-.72c.91-.68,1.79-1.31,2.68-1.93C36.39,2.32,34,2.11,33.54.61l1.56-1C35.83,0,36.52.42,37.22.88Z"/><path class="cls-6" d="M43.3,14.61c-2.22.32.2,3.16-2.46,2.72l-1.33-.57c-.51-.87-1-1.79-1.46-2.71a8.54,8.54,0,0,1,.22-1.63l.11-.24a5,5,0,0,1,1.95.49Z"/><path class="cls-6" d="M46.49,22.8c-.68,0-1.43-.11-2.09-.18l-2.15-1.27a10.09,10.09,0,0,0-.42-1.53c.9,0,1.81.07,2.68.15C46.4,20.58,45.79,21.87,46.49,22.8Z"/><path class="cls-6" d="M37.06,19.5a14.18,14.18,0,0,1-1.63,1c.92,1.46.16,1.85,0,2.43-.14.79-.4,1.61-.57,2.46-.28.6-.52,1.14-.8,1.73-.41.4-.72.84-1.14,1.24-.59.54-.33,2.76-2.39,2.78-.95.11-2.66-.64-2.47.71-.13.8-.93,1.83-2.48.72s.21-2,.23-3c-.68-.49-1.27-.95-2.06-1.48a7.12,7.12,0,0,0,1.79-2.71c1.17.19,2.4.48,3.54.73L29.61,25l-.1-3.48.14-.31c1.35-.72,2.51-1.45,3.78-2.2l.39-.84Z"/><path class="cls-6" d="M57.84,34.93a2.85,2.85,0,0,0-.62.08l-4.11-1.69c-.07-.58-1-1.31-.32-1.79l4.52.85C56.4,33.1,58.71,34.27,57.84,34.93Z"/><path class="cls-5" d="M40,5.25c1.76,1.58,1.15,2.82.17,3.19a12.62,12.62,0,0,1-1.28-.93c-.09-.48-.2-1-.3-1.51Z"/><path class="cls-5" d="M57.84,34.93c2.55,1.87,1.52,2.87.68,3.21-.85-.15-1.7-.29-2.57-.37-.62-1.13-.52-2.82,1.27-2.76A2.85,2.85,0,0,1,57.84,34.93Z"/><path class="cls-7" d="M40.2,8.44,39.91,9c2.26,1.72.59,2.56.42,3.64a5,5,0,0,0-1.95-.49c-.19-.8-.38-1.61-.59-2.35a15.75,15.75,0,0,0-1.51-1.39l.55-1.13a15.83,15.83,0,0,0,2.09.2A12.62,12.62,0,0,0,40.2,8.44Z"/><path class="cls-7" d="M34.42,11.1l-1.83,1.66-.48-.21c.08-1.12-3-1.82-1.59-2.42l3.19.3A5.59,5.59,0,0,0,34.42,11.1Z"/><path class="cls-7" d="M37.88,17.77c0,.38,0,.72,0,1.1-.3.16-.54.41-.87.63l-3.24-1.38a14.06,14.06,0,0,0,1.3-1.53Z"/><path class="cls-7" d="M10.89,22.86c1.57,1.08,2.67,1.16,2.06,1.5.36,2-3.27-.29-3.54-.7A11.41,11.41,0,0,0,10.89,22.86Z"/><path class="cls-7" d="M6.77,24.74c-1.71-1-1.82-1.25-2-1.55C4.61,22,6.4,23,8.4,23.62A14.56,14.56,0,0,1,6.77,24.74Z"/><path class="cls-7" d="M7.42,27.13c2.13.55,3.11,1.67,2.05,2.57-.43-.32-1.17-.16-1.11.23-1.28,1.11.93,1.75.19,3.21,2.33.61,1.61,1.2,1.3,2l-.73,1.76A10.42,10.42,0,0,1,9,38.55C8.05,38.34,7,38.11,6,37.81a7.38,7.38,0,0,0-.65.49c-.19.73-.29,1.5-.47,2.23-3.44.8-.54-2.54-4.08-1.78.17-.45-2.16-3.46,1.38-2,.33-.24.56-.52.86-.7-.28-1.5-1.4-1.49-1.93-1.83.3-1.81,1.5-2,2.39-3.3C7.12,32,6.09,28.38,7.42,27.13Z"/><path class="cls-9" d="M37.79,9.83c.21.74.4,1.55.59,2.35l-.11.24c-1.3-.42-2.59-.84-3.85-1.32a5.59,5.59,0,0,1-.71-.67,11.08,11.08,0,0,0-.4-1.55l.26-.54,2.71.1A15.75,15.75,0,0,1,37.79,9.83Z"/><path class="cls-10" d="M8.54-4.83c.17,1.12.36,2.33.52,3.44A9.5,9.5,0,0,0,8-1.5L6.14.17c1.47,1.24.52,2,.32,2.67C6,3.48,5.53,4.08,5,4.75a7.25,7.25,0,0,1,.39,1.59L3.54,6.6c-.32.46-.75.88-1.08,1.34A17.77,17.77,0,0,0,1,9.86,19.63,19.63,0,0,0-.67,8.78,22.62,22.62,0,0,1,1.51,7.53c-2.76-.94-2.63.24-3.14.85L-3,7.82c-.28-1.1-.47-2.16-.79-3.2.84-.56,1.63-1,2.43-1.53L1,.46c.8.72,1.6,1.44,2.34,2.06a5.88,5.88,0,0,0,1.36-.46A15.13,15.13,0,0,0,4.56-.15a17.52,17.52,0,0,1-1.65-1.1c.51-.59.94-1.24,1.45-1.83L6.65-5.67Z"/><path class="cls-9" d="M4.56-.15a15.13,15.13,0,0,1,.09,2.21,5.88,5.88,0,0,1-1.36.46C2.55,1.9,1.75,1.18,1,.46a25.27,25.27,0,0,0,2-1.71A17.52,17.52,0,0,0,4.56-.15Z"/><path class="cls-9" d="M1.51,7.53A22.62,22.62,0,0,0-.67,8.78,19.63,19.63,0,0,1,1,9.86L.05,11.94c-.44,1-.84,1.83-1.27,2.78-.93.29-1.93.48-2.13.93a8.06,8.06,0,0,1-.2,1.73c-.55,2.26-1.24,4.53-1.85,6.79l-.14.32c-2,.79-2.19,1.18-2.53,2l1.45.56-.24.58c-1.18.9-1.68,1.32-2.63,1.18,2,1.5,1,2.26.43,2.74a8.69,8.69,0,0,0,.73,1l-.27.65.36,1.56-.13.33c-1,0-2.09-.09-3.19-.12a1.6,1.6,0,0,1-.26-.47l.65-1.58-1.94-.72c-.15-.73-.36-1.58-.6-2.35a6.72,6.72,0,0,1,.76-.48l.13-.33c-1.27-3.16,1.18-2.83,1.71-4.06.39-1.44.88-2.84,1.27-4.29,3.73.49,1.65-.93,1.9-1.74a18.94,18.94,0,0,1,.49-2.38C-8,14-5.12,13-4.35,10.86l1.38-3,1.34.56C-1.12,7.77-1.25,6.59,1.51,7.53Z"/><path class="cls-10" d="M35.91,5.89a16.52,16.52,0,0,1,.92,1.42l-.55,1.13-2.71-.1c0-1.11,0-2.11,0-3.22l1.59,0A4.07,4.07,0,0,1,35.91,5.89Z"/><path class="cls-10" d="M38.05,14.05c.48.92,1,1.84,1.46,2.71a14.15,14.15,0,0,0-1.63,1l-2.76-1.18a7.35,7.35,0,0,0,.06-1.34l-2.59-2.49,1.83-1.66c1.26.48,2.55.9,3.85,1.32A8.54,8.54,0,0,0,38.05,14.05Z"/><path class="cls-7" d="M9.06-1.39c1.59,2-.07,4-.14,6C8,5.31,7.16,6,6.24,6.71c.89,2-.84,4,.06,5.75-3,.15-2,3.8-3.61,5.66C4.38,19.93,1,19.89.75,21.22c-1,2.32-2.73,5-2.59,7.25-.41.44-.73.91-1.14,1.35-.18-1.41-2.23-1.37-3.88-2.24l.24-.58,1.08-2.51.14-.32c.78-2.65,4.63-4.61,4.1-7l.08-2.44c.43-1,.83-1.83,1.27-2.78L1,9.86A17.77,17.77,0,0,1,2.46,7.94c.33-.46.76-.88,1.08-1.34l1.84-.26A7.25,7.25,0,0,0,5,4.75c.54-.67,1-1.27,1.47-1.91.2-.66,1.15-1.43-.32-2.67L8-1.5A9.5,9.5,0,0,1,9.06-1.39Z"/><path class="cls-9" d="M4.56-.15A13.39,13.39,0,0,0,6.14.17,13.39,13.39,0,0,1,4.56-.15Z"/></g></g></svg>