<svg id="Layer_1" data-name="Layer 1" xmlns="http://www.w3.org/2000/svg" viewBox="0 0 214.19 201.68"><defs><style>.cls-1{opacity:0.85;}.cls-2{fill:#fdefe4;}.cls-3{fill:#fef4ed;}.cls-4{fill:#fbe8d9;}.cls-5{fill:#fae0cd;}</style></defs><title>Artboard 10</title><g class="cls-1"><g class="cls-1"><path class="cls-2" d="M443.94,99.91c-.87,8.79-5.94,1.11-8,6.31l-5.65-2.39-5.79-2.32a8.85,8.85,0,0,1-1.32-2.16,41.14,41.14,0,0,1-5.09,1.4c-.8,1.7-1.89,3.61-2.68,5.32-5.24-4.84-5.7,2.91-11.92,3.8-2.31,1.88-4.59,3.79-6.81,5.71-.19,1.56-.19,3.19-.38,4.75,2.69,1.75,10.17,0,5.87,8.08-.08,1.63-1.72,3-5.66,2.71q-2.38,3.16-4.67,6.35c-1,3.25-2.31,6.76-3.31,10-3,.76-5.61,1.26-8.47,2.16q-.76-.21-1.53-.39a36.33,36.33,0,0,1-3.76,2.3c-.32-3.25-.73-6.21-1.13-9.47-2.57-3.65-2.36,5.88-5.24,6.58-2.49-2.31-5.07-4.95-7.81-7.12a5.3,5.3,0,0,1-5.16-1.59,17,17,0,0,1-2-2.41c-.65-.87-1.29-1.8-1.94-2.71-1.3-1.8-2.64-3.52-4.22-4.31s-3.4-.71-5.5,1c-1.42-.73-2.86-1.45-4.34-2.13a39.2,39.2,0,0,0-4.62-1.73c-1.82,1-3.59,2.31-5.31,3.54s-3.39,2.55-5,3.77l-1.88.32-1.67.35c-1.11.24-2.24.46-3.32.71,0-1.6-.79-2.05-1.45-2.84-1.5.38-1.73,3.18-2.5,5.72s-2.07,4.93-5.36,4.41a16.56,16.56,0,0,1-4-.18,63,63,0,0,1-7.42,4.41,55.48,55.48,0,0,1-8.58,2.32c-.49.09-1,.16-1.66.25-1.9-.62-2.06-2.72-2-4.93s.33-4.57-.52-5.89a4.21,4.21,0,0,0-2.06-.27,8.3,8.3,0,0,1-2.23,0c-1.43-.25-2.56-1.46-2.54-5.36a24.36,24.36,0,0,1-5.91-3.46,6,6,0,0,0-2.1,1.18c-.63.48-1.2,1-1.75,1.45-1.09.86-2.07,1.18-3.1-.42-1.38-.71-2.6-1.38-3.93-2.16l-1.33-.78c-2.28,5.26-3.92,2.39-4.56.46a22.92,22.92,0,0,1-5-1.52c.88-3,0-3.78-.91-4.55s-2.09-1.54-1.6-4.52l-4.78-9.26c-2.23.53-5.64,3.23-7.89,4.48s-3.26,1.12-.42-3.8c-.5-1.71-2-1.93-3.48-2.41s-3-1.2-3.29-3.85c-.72-1.38-1.45-2.76-2.13-4.16a30.85,30.85,0,0,1-1.83-4.3,58.72,58.72,0,0,1-5.95.36c-.91-1-1.9-2-2.77-3.1-.61-.49-1.26-.89-1.93-1.33s-1.35-.86-1.94-1.31c-4.44.63-9.23-.09-4-4.92l-.88-1.15c-5.33,3.75-4.22-.89-7.15.92-2,1-3.82-1.64-1.55-4.89l-.95-1.35a21.42,21.42,0,0,0-2.08-1.81l-2.18-1.75c-5,2.46-5.16-.62-4.85-2.44l-1.46-1.43c-.46-.48-.9-1-1.35-1.49-.88-1-1.73-2.06-2.52-3.14-.85-.85-1.64-1.78-2.44-2.71S175.81,62.91,175,62c-3.13,1.72-4.8,1-5-1a7.51,7.51,0,0,1,.79-3.74,19.48,19.48,0,0,1,3.14-4.69c-.4-.9-.86-2-1.25-2.86-2.27.22-4.28.27-6.3.31-.37-1.14-1.13-2.46-1.49-3.8a3.65,3.65,0,0,1,1.45-4.08c-.35-.93-.75-2-1.1-2.93-5.15-.8-.61-3-1.44-4.58-.06-.15-.15-.47-.25-.78l-9.62,3.57c-4.13.31-4-.94-2.87-2.51s3.48-3.49,3.65-4.71c.38-1-.89-1-1.9-1.19-5.48,1.75-4.6-.13-3.56-2.31.52-1.09,1.09-2.26.9-3.13s-1-1.49-3.49-1.47c-.79-2.37,9.05-3.8,4.61-7.07-2.7.34-4.44,0-5.46-.86a4.34,4.34,0,0,1-1.29-3.6c.07-2.94,1.54-6.53,2-9-3.17-.54-6.37-1.3-9.26-2a8.1,8.1,0,0,0,1.59-3.78,4.94,4.94,0,0,0-.57-3.08c-1-1.88-3.09-3.51-5.33-5.22a30.18,30.18,0,0,1-6.11-5.67,8,8,0,0,1-1.31-7.69c2.51-2.05,1.68-3.94.85-5.85s-1.59-3.81,1-5.67c-4.8-.34-7-1.67-8-3.49a6.23,6.23,0,0,1-.69-3,25.6,25.6,0,0,1,.34-3.32c.33-2.24.65-4.44-.33-6.16s-3.21-3-8.09-3.36c-.25-2.3.61-4.84.92-7.25s.15-4.68-2.3-6.59c7.11-1.93,8.08-2.2,7.85-3-2-1.85-5.79-1.23-8.87-1.68a35.49,35.49,0,0,1,2.29-5.3c6,2.06,6.2-1.88,9.45-2.68-5.15-2.57-3-4.71.36-6.91s7.93-4.45,7.82-7.41c-2.05-4.66-18.83-4.14-10.56-10.21-6.85-4-6.37-4.93-2.75-9.3,6.86-1.3,7.53-4.91,12.24-8.12,2.49.16,4.71.11,7.52.32,1.39-.73,3.1-1.4,4.81-2.08,9-.74,15.89-.49,20.19-3.17,2.42.53,4.82,1.24,7.26,1.77.82,4,3.73,5.27,3.45,6.69l-11.09,1.88c1.49,2.2,3.24,4.62,4.73,6.8l-1,5.78c2.93,1.29,5.85,2.56,8.46,3.78.52.6.74,1.16,1.26,1.76-2.3,2.35-4.88,4.5-7.17,6.88-2.71,1.1-5.4,2-8.11,3.31l-7.4-.83a89.32,89.32,0,0,0-3,9c-1,2.57-1.64,5-2.64,7.61-2,.54-4.26,1.25-6.23,2,1.76,1,3.81,2.11,5.59,3,1.29,2.23-4.46,3.26-.63,5.13,3.51-.57,4.37.11,4.54,1.58s-.27,3.72.56,6.3c-1,1.18-2.09,2.18-3.14,3.38,3.16,3.11,6.65,2.5,8.74,3.6l2.48,4.16c5.7-1.09,5.11,1.95,7.23,3.27-3.61,4,6.27,4.73,2.67,8.67,1.53,1.56,7.16-.33,7.44,1.24,0,.62,0,1.1,0,1.57-2.49.55-5,1.12-7.49,1.87,0,.63-.05,1.5,4.28,4.27-2.8.48-5.9,1-9,1.33-.27,1.64-.87,3.16-1.15,4.83a23.58,23.58,0,0,1,2.8,1.4c.69,3,1.24,6,2,9-5.71.48-4.65,1.88-3.67,3.24s1.71,2.74-4.76,3.51c.05.49.09,1,.14,1.48,8.29-1.2,9.7-2.85,16.2-3.27C172.25-2.67,172-1,171.62.4L162.76,2c-6.08,5.73,7.57.32,7.94,3.05-1,1.76-2.38,3.51-3.56,5.38-1.73.89-1.24,1.74-1.09,2.52,1.76,1,4.93-.62,7.37-1.08.22,1.19.43,2.38.65,3.56,2.36,2,8.27-1.45,9.29.16a177.75,177.75,0,0,1-17.15,10.8l5.2-.19c1.76-.08,3.53-.17,5.28-.31,2.94,0,1.7,2.39,2.71,3.61-3,1.94-5.2,4.18-10.53,5.79a7,7,0,0,0-.75,2.73c2.59-.18,5.15-.4,7.66-.8a4.33,4.33,0,0,1-.13,4.16A19.48,19.48,0,0,0,177.34,44c.66.82,1.34,1.62,2,2.41a38.7,38.7,0,0,0-.14,3.88c0,1.3,0,2.59.16,3.8,2.57,1,5.3,1.6,7.8,2.46.49.3,1,.6,1.42.91l1.41.91c.93.61,1.81,1.24,2.69,1.86.19,1.89.32,3.85.63,5.75s.7,3.81,1.17,5.73l.86,1.35,3.48-2.59a38.61,38.61,0,0,1,5.1-.19,31.13,31.13,0,0,1,4.51,1.07c.79,1.1,1.59,2.39,2.54,3.56l1.76,2.28c-1.45,5.74.9,4.32.77,6.08,2.34.36,4.8-3,6.93-3.34l1.77,2.13a13.24,13.24,0,0,0-.68,4.6,3.62,3.62,0,0,0,.92,2.18c.91,1,2.17,1.38,2.63,3.07.87,1,1.78,1.85,2.71,2.83,2-1.48,4-3,5.83-4.62,2.21-1.28,4.32-2.58,6.43-4a14.43,14.43,0,0,0,4.12-.3c-.2,1.94-.37,3.93-.48,5.92.72,1.89,1.42,3.77,2.08,5.51-.22,1.45-.38,2.53-.52,3.63,1.45-1.17,3.15-2.64,4.53-3.89,1.72-.6,3.48-1.16,5.1-1.82.08.06.27.21.44.36-.87,3.23-1.6,6.56-2.17,9.63l1,.75c2.89-4.82,2.32-6.39,3.36-8.72l1.84-2.09c3,1.84-2.23,12.62,2.13,10.69,1-2.36,1.91-4.74,2.74-7.19.75.5,1.52,1,2.29,1.48.85,2.36,1.87,4.44,2.82,6.69a34.36,34.36,0,0,0,6,6c1.48-2.7,1.22-4.06.83-5.5a11,11,0,0,1-.34-6.15,30.16,30.16,0,0,0,2-5.59,4.76,4.76,0,0,0,.05-2c-.84-2.38-1.84,3.2-2.78,2.47a12,12,0,0,0-.2-1.84c.61-3.63,1.21-7.25,1.87-11.21.65-1.85,1.19-3.74,1.76-6,.12-.29.36-.89.6-1.5A11.05,11.05,0,0,0,281.81,78a9.57,9.57,0,0,0,.08,3.42c.83,2.21,1.42-3.49,2.15-3a40.66,40.66,0,0,0,2.1,6.37c.81,1.61,1.38.19,1.86-1.54s.88-3.79,1.58-3.61l1.07-.24c.64.5,1.27.65,1.94,1.12a5.82,5.82,0,0,1,3.88-3.15,19.88,19.88,0,0,1,2.37-.34,23,23,0,0,0,2.39-.23.91.91,0,0,1,.82-.07,3.8,3.8,0,0,1,1.06.54c.73.51,1.52,1.24,2.25,1.8a5.77,5.77,0,0,0,.54.37,4.24,4.24,0,0,0,.94.18,4.69,4.69,0,0,0,1.84-.11c1.15-.33,2.13-1.23,2.9-3.11,5.1.18,10.4-1.88,15.31-2.9a18,18,0,0,1,6.86-.43A7.6,7.6,0,0,1,339,76.32c2.5-2.37,6.34-3.1,10.19-3.62s7.78-1,10.95-3.3c2,.92,3.85,1.91,5.67,2.87s3.56,2,5.27,3c3.77-.79,7.92-.24,11.8-.26s7.45-.51,10.27-3.33c1.21,1.08,2.49,2.1,3.75,3.11s2.48,2.09,3.63,3.19a32.21,32.21,0,0,0,3.64.9,4.75,4.75,0,0,0,3.37-.55c6.4,4.15,12.2,4.26,9.92,14.31a18.84,18.84,0,0,0,2.61-.71c1.3.44,2.73,1,4,1.48l1,.39c2.21-.85,4.25-1.35,6.44-2.15l2.89,1.16c1.23-.16,2.35,0,3.38-.26a26.83,26.83,0,0,0,4.59.28C442.81,95.33,443.48,97.67,443.94,99.91Z"/><path class="cls-3" d="M363.93,159.88a17.61,17.61,0,0,1-3.11,1.1,38.06,38.06,0,0,1-4.45-2.11l-2.21-.21c-2.78-2.71-5.55-5-8.69-7.85a7.85,7.85,0,0,0-.84,0c-2.6,1.55-5.1,3.15-7.45,4.89-1,.06-2.1.12-3,.25-1-3.33-2.11-7-3.38-10.25-.7.09-1.41.17-2.12.22a18.73,18.73,0,0,1-2.13.17,16.18,16.18,0,0,1-4.55-.56c.1,2.85,0,5.11,0,7.68a4.54,4.54,0,0,1-2.23.77c-.84.14-1.72.2-2.51.38-1.59.35-2.83,1.18-2.81,4.18-.18,3,.64,4.53,1.83,5.06a4.36,4.36,0,0,0,3.86-.46c.77-.79,1.41-1,2-.92a2.66,2.66,0,0,1,1.41,1.25c.85,1.28,1.58,3.2,2.52,4.24a60.76,60.76,0,0,1-2.45,7.25c-1.29-.27-2.91.3-4.62,1.09s-3.49,1.82-5.12,2.42c-3.25,1.2-5.63.68-5.12-6.78-3.62,1.88-7.33,3.17-12,2.3.28,2.5.77,4.93,1.07,7.43,1.93,2.39,7.81-2.7,6.36,5.93-4,1.2-7.93,2.3-12,3.12a54.79,54.79,0,0,1-6.07-3.71c1-3.59-1.1-4.55-1.72-8.57A61.81,61.81,0,0,1,274,184.11a25,25,0,0,0-3.33,5.53,20.26,20.26,0,0,1-3.35,5.41c-2.47-.45-4.9-1.09-7.3-1.76-2.56-3.54-2-6.46-.79-9.44s3-6,3.24-9.83c-.4-1.1-.8-2.22-1.33-3.71a66.82,66.82,0,0,1-15.6-.82c-2.73,2.7-5.69.25-8.34-1.59s-5.15-3-7.77,2.24c-3.19-1.91-6.73-5.31-10.74-3.57-5,5.15-5.16,7.88-4.1,10.09s3.12,3.83,2.25,6.58c-4.1,4.27-6-.74-9.17,2.74a58.56,58.56,0,0,1-8.1-3.17l-4.4-1.95c-1.47-.66-3-1.24-4.36-1.93l-1-.81-2-1.63a77,77,0,0,1-11-1.46,17.37,17.37,0,0,1-3.71-1.23c-.62-2.64-1.4-5-1.94-7.62a8,8,0,0,1-4.26-1.84,13.06,13.06,0,0,1-2.72-3.5c-1.51-2.64-2.53-5.66-4.27-7.88a16.34,16.34,0,0,1,10.56-3.66,8,8,0,0,1,7.44,5c2.74-3.39,4.53-2.36,6.29-.63s3.53,4.17,6,3.44c4.55-5.24,3.73-9.54,3.38-13.85s-.3-8.63,5.52-14.21c4.48-2.36,7.23-1.76,9.58-1.69s4.29-.5,6.9-5.24c2.12.44,2.17,2.78,2.45,5s.75,4.52,3.55,4.38c1.3-2.15,2.59-4.31,3.89-6.47a26.62,26.62,0,0,1-5.22-5c-.77-.93-1.51-1.87-2.23-2.81l-2-2.83a26.93,26.93,0,0,0-4.15-4.72,9.65,9.65,0,0,0-5.07-2.57c-2.81,6.29-5,5.64-7.2,4.86a4.45,4.45,0,0,0-3.18-.34c-1.06.46-2.19,1.77-3.33,4.92,1.2,1.72,2.21,3.68,3.58,5.57-6.11,3-7.29.91-7.75-1.38-2.53.88-5.21,1.58-7.81,2.38-5.66-.36-7.43-2.26-11.79-4.83-4.5,4.33-6.66,1.5-8.86-.52s-4.34-3.42-9.28,4c-6.25,7.23-3.68-2.9-6.53-4.19,1.87-2,1.32-3.4.28-4.88s-2.71-2.84-3.22-4.45c-3.38,1.08-6.47-.8-10.12,3.26,3.47,3.58-5.8,5.34-1.49,9-3.44,1-9.57,10.29-10.34,3-5.7,6-9.64,5.43-13.36,3.55s-6.9-5.16-11.54-4.13c-7.36.62-11-6.23-14-12.4a19.27,19.27,0,0,1-9.47-1.6,29.39,29.39,0,0,1-7.74-5.2,65,65,0,0,1-6.78-7.3c-2.2-2.62-4.43-5.31-6.87-7.85L43,91.3c-.1-.27-.3-.83-.39-1.1a58.16,58.16,0,0,0,1.28-9.4c-4.19.25-8,.63-12.12,1.08-3.71-.32-7.39-.37-11.4-.72-1-3.24-2-6.8-3-10.07,4.46-4.78,8.32-4.29,11.94-2.65S36.42,73,40.09,73.29a59.79,59.79,0,0,0,6.3,5.13,75.87,75.87,0,0,0,8.32,1.21c2.6.37,3.4,3.15,4.63,5.14s2.92,3.12,7,.32c1.27,6.44,7.87,4.49,12.07,5.73,5.6-.28,6.11-6.38,5.66-9.16-3-1.59-4.09-3.44-4.26-5.29s.67-3.76,1.35-5.48c1.38-3.5,2.4-6.3-5.21-8,1.33-3.9.48-8.34,0-12.5s-.43-8,2.79-10.72c3.6-3.86,3.77-6.05,9.08-8-1.29-2.08-4.56-3.87-7-6.21s-4.07-5.19-1.58-9c2.08-3.35,13.2-4.41,10.53-11.27l-9.14-.85a4.19,4.19,0,0,1,1.14-5.89,7.21,7.21,0,0,1,7.4-.37c.71,1.21-1,3.37,1.93,5,1.77-1.3,3.85-2.62,5.63-3.88,1.17-3.19-1.24-5.92-4-8.71s-5.71-5.6-6-8.69a11.59,11.59,0,0,0,6.53-2.4,6.42,6.42,0,0,0,2.42-5.05c-2.33-1.15-3.95-3.12-4.18-5s1-3.77,4.33-4.7c-1.73-3.2-3.86-6.49-5.49-9.75-2.42-1.26-5.86-.93-9-1.21a25.9,25.9,0,0,0-.19-8.93c-.41-3-1-6.15-1.15-9.13a14,14,0,0,1,1.77-8.21c1.51-2.44,4.12-4.54,8.56-6,.25-4.29-12.54.07-9.59-5.61,1.34-3,6.41-2.19,10.82-2s8.13-.3,6.89-5.51l-9-1c.56-1.68-.49-5.11,3.61-5.22-.49-6.57-14.93-2.92-8.85-9.34A33.81,33.81,0,0,1,76-112c-.18-2.52-.07-5-.28-7.35,3,.61,5.76,1.35,8.8,2,2.66-.79,5.35-1.76,8-2.54,1.39-2.43-1.15-7.49,4.53-7.44,5.39-.18,11.11-.31,16.47-.3,2.77-1.28,5.47-2.18,8.21-3.26l7.89-1.64c.21-1.08.45-2.33.65-3.4l1.53.22c2.43.53,4.83,1.24,7.22,1.95,3.49,1.6,4.68-1.34,7.72-.72,4.44,1.55,8.58,3.07,12.71,4.56-8.57,1.89-11.17,2.25-17.11,3.61l-3.08-.44c-1.71.68-3.42,1.35-4.81,2.08-2.81-.21-5-.16-7.52-.32-4.71,3.21-5.38,6.82-12.24,8.12-3.62,4.37-4.1,5.26,2.75,9.3-8.27,6.07,8.51,5.55,10.56,10.21.11,3-4.45,5.21-7.82,7.41s-5.51,4.34-.36,6.91c-3.25.8-3.47,4.74-9.45,2.68a35.49,35.49,0,0,0-2.29,5.3c3.08.45,6.91-.17,8.87,1.68.23.78-.74,1-7.85,3,2.45,1.91,2.62,4.18,2.3,6.59s-1.17,5-.92,7.25c4.88.37,7.11,1.63,8.09,3.36s.66,3.92.33,6.16a25.6,25.6,0,0,0-.34,3.32,6.23,6.23,0,0,0,.69,3c1,1.82,3.24,3.15,8,3.49-2.55,1.86-1.83,3.77-1,5.67s1.66,3.8-.85,5.85a8,8,0,0,0,1.31,7.69,30.18,30.18,0,0,0,6.11,5.67c2.24,1.71,4.33,3.34,5.33,5.22a4.94,4.94,0,0,1,.57,3.08,8.1,8.1,0,0,1-1.59,3.78c2.89.67,6.09,1.43,9.26,2-.43,2.43-1.9,6-2,9a4.34,4.34,0,0,0,1.29,3.6c1,.83,2.76,1.2,5.46.86,4.44,3.27-5.4,4.7-4.61,7.07,2.45,0,3.32.59,3.49,1.47s-.38,2-.9,3.13c-1,2.18-1.92,4.06,3.56,2.31,1,.22,2.28.16,1.9,1.19-.17,1.22-2.51,3.14-3.65,4.71s-1.26,2.82,2.87,2.51l9.62-3.57c.1.31.19.63.25.78.83,1.6-3.71,3.78,1.44,4.58.35.92.75,2,1.1,2.93a3.65,3.65,0,0,0-1.45,4.08c.36,1.34,1.12,2.66,1.49,3.8,2,0,4-.09,6.3-.31.39.9.85,2,1.25,2.86a19.48,19.48,0,0,0-3.14,4.69A7.51,7.51,0,0,0,170,61c.22,2,1.89,2.71,5,1,.79.89,1.53,1.87,2.28,2.83s1.59,1.86,2.44,2.71c.79,1.08,1.64,2.12,2.52,3.14.45.5.89,1,1.35,1.49l1.46,1.43c-.31,1.82-.19,4.9,4.85,2.44l2.18,1.75a21.42,21.42,0,0,1,2.08,1.81l.95,1.35c-2.27,3.25-.42,5.89,1.55,4.89,2.93-1.81,1.82,2.83,7.15-.92l.88,1.15c-5.27,4.83-.48,5.55,4,4.92.59.45,1.26.87,1.94,1.31s1.32.84,1.93,1.33c.87,1.1,1.86,2.11,2.77,3.1a58.72,58.72,0,0,0,5.95-.36,30.85,30.85,0,0,0,1.83,4.3c.68,1.4,1.41,2.78,2.13,4.16.25,2.65,1.8,3.36,3.29,3.85s3,.7,3.48,2.41c-2.84,4.92-1.83,5,.42,3.8s5.66-4,7.89-4.48l4.78,9.26c-.49,3,.64,3.74,1.6,4.52s1.79,1.54.91,4.55a22.92,22.92,0,0,0,5,1.52c.64,1.93,2.28,4.8,4.56-.46l1.33.78c1.33.78,2.55,1.45,3.93,2.16,1,1.6,2,1.28,3.1.42.55-.42,1.12-1,1.75-1.45a6,6,0,0,1,2.1-1.18,24.36,24.36,0,0,0,5.91,3.46c0,3.9,1.11,5.11,2.54,5.36a8.3,8.3,0,0,0,2.23,0,4.21,4.21,0,0,1,2.06.27c.85,1.32.58,3.67.52,5.89s.1,4.31,2,4.93c.66-.09,1.17-.16,1.66-.25a55.48,55.48,0,0,0,8.58-2.32,63,63,0,0,0,7.42-4.41,16.56,16.56,0,0,0,4,.18c3.29.52,4.63-1.81,5.36-4.41s1-5.34,2.5-5.72c.66.79,1.44,1.24,1.45,2.84,1.08-.25,2.21-.47,3.32-.71l1.67-.35,1.88-.32c1.65-1.22,3.31-2.57,5-3.77s3.49-2.49,5.31-3.54a39.2,39.2,0,0,1,4.62,1.73c1.48.68,2.92,1.4,4.34,2.13,2.1-1.75,3.92-1.8,5.5-1s2.92,2.51,4.22,4.31c.65.91,1.29,1.84,1.94,2.71a17,17,0,0,0,2,2.41,5.3,5.3,0,0,0,5.16,1.59c2.74,2.17,5.32,4.81,7.81,7.12l-.2,1.54C366.76,153.41,365.22,156.65,363.93,159.88Z"/><path class="cls-4" d="M279.19,75.4c-.24.61-.48,1.21-.6,1.5-.57,2.22-1.11,4.11-1.76,6-.66,4-1.26,7.58-1.87,11.21a12,12,0,0,1,.2,1.84c.94.73,1.94-4.85,2.78-2.47a4.76,4.76,0,0,1-.05,2,30.16,30.16,0,0,1-2,5.59,11,11,0,0,0,.34,6.15c.39,1.44.65,2.8-.83,5.5a34.36,34.36,0,0,1-6-6c-.95-2.25-2-4.33-2.82-6.69-.77-.48-1.54-1-2.29-1.48-.83,2.45-1.78,4.83-2.74,7.19-4.36,1.93.83-8.85-2.13-10.69l-1.84,2.09c-1,2.33-.47,3.9-3.36,8.72l-1-.75c.47-3.15,1-6.6,1.73-10-1.62.66-3.38,1.22-5.1,1.82-1.38,1.25-3.08,2.72-4.53,3.89.14-1.1.3-2.18.52-3.63-.66-1.74-1.36-3.62-2.08-5.51.11-2,.28-4,.48-5.92a14.43,14.43,0,0,1-4.12.3c-2.11,1.42-4.22,2.72-6.43,4-1.85,1.63-3.82,3.14-5.83,4.62-.93-1-1.84-1.79-2.71-2.83-.46-1.69-1.72-2.06-2.63-3.07a3.62,3.62,0,0,1-.92-2.18,13.24,13.24,0,0,1,.68-4.6l-1.77-2.13c-2.13.36-4.59,3.7-6.93,3.34.13-1.76-2.22-.34-.77-6.08L211,74.91c-1-1.17-1.75-2.46-2.54-3.56a31.13,31.13,0,0,0-4.51-1.07,38.61,38.61,0,0,0-5.1.19l-3.48,2.59-.86-1.35c-.47-1.92-.84-3.83-1.17-5.73s-.44-3.86-.63-5.75c-.88-.62-1.76-1.25-2.69-1.86l-1.41-.91c-.46-.31-.93-.61-1.42-.91-2.5-.86-5.23-1.48-7.8-2.46-.12-1.21-.15-2.5-.16-3.8a38.7,38.7,0,0,1,.14-3.88c-.68-.79-1.36-1.59-2-2.41a19.48,19.48,0,0,1-1.69-2.59,4.33,4.33,0,0,0,.13-4.16c-2.51.4-5.07.62-7.66.8a7,7,0,0,1,.75-2.73c5.33-1.61,7.56-3.85,10.53-5.79-1-1.22.23-3.56-2.71-3.61-1.75.14-3.52.23-5.28.31l-5.2.19c-.08-.32-.12-.46-.19-.78,3.42-1.62,7.16-3.32,10.89-5a37.1,37.1,0,0,1,6.45-5c-1-1.61-6.93,1.8-9.29-.16-.22-1.18-.43-2.37-.65-3.56-2.44.46-5.61,2.08-7.37,1.08-.15-.78-.64-1.63,1.09-2.52,1.18-1.87,2.57-3.62,3.56-5.38-.37-2.73-14,2.68-7.94-3.05L171.62.4c.39-1.45.63-3.07,1.1-4.52-6.5.42-7.91,2.07-16.2,3.27-.05-.5-.09-1-.14-1.48,6.47-.77,5.72-2.15,4.76-3.51s-2-2.76,3.67-3.24c-.74-3-1.29-5.93-2-9a23.58,23.58,0,0,0-2.8-1.4c.28-1.67.88-3.19,1.15-4.83,3.06-3.1,3.77-3.62,4.7-4.14-2.43-3.14,3.75-1.62,7.51-3.33,0-.47,0-.95,0-1.57-.28-1.57-5.91.32-7.44-1.24,3.6-3.94-6.28-4.69-2.67-8.67-2.12-1.32-1.53-4.36-7.23-3.27l-2.48-4.16c-2.09-1.1-5.58-.49-8.74-3.6,1-1.2,2.09-2.2,3.14-3.38-.83-2.58-.38-4.84-.56-6.3s-1-2.15-4.54-1.58c-3.83-1.87,1.92-2.9.63-5.13-1.78-.84-3.83-1.9-5.59-3,2-.74,4.27-1.45,6.23-2,1-2.6,1.64-5,2.64-7.61a89.32,89.32,0,0,1,3-9l7.4.83c2.71-1.28,5.4-2.21,8.11-3.31,2.75.5,5.78,1.21,8.83,1.74.09,1.24.54,2.33.67,3.55,1.09,3,2.12,6.26,3.24,9.25l2.78.28c-.67,2.45-1.63,4.71-2.3,7.18,2.77.4,5.81,1,8.58,1.38-1.15,1.54-2.28,3.07-3.4,4.46,1.36,1.57,4.91.83,7.34,1.33l-.21,1.59c-.09.64-.19,1.44-.29,2.23l-3.1-.19-9-.53c-.79-1-1.58-2.26-2.39-3.31l-12.28.7c2.07,3.22,3.5,5.89,5.16,8a12,12,0,0,0,7.22,4.54c2.13,2.63,1.7,5.76,1.76,8.53s.7,5.08,4.67,6c1.38-2.32,1.43-3.08,1.46-3.7,6.9-1,10.82,1,8.72,4.89,6.26-1,9.88.66,13.32.41-5.69,3.35,4.24,3.27,2.87,6.42l7.45-.42c.9.35,1.84.66,3.08,1.07a51.75,51.75,0,0,0-1.6,6.59c0,1.38.08,2.73.12,4.08,0,.68,0,1.36,0,2l.13,2c-.54,1.07-1,2.17-1.44,3.28-.22.56-.43,1.11-.64,1.67s-.35,1.05-.52,1.57c-.82,1.08-1.63,2.19-2.44,3.31-1.15,1.48-1.36,2.38-1,2.82a3.5,3.5,0,0,0,2.46.46c2.18-.1,4.92-.63,5,.62-.62,1.18-1.23,2.32-1.83,3.47s-1.09,2.24-1.63,3.43a8.62,8.62,0,0,0-1.27,3,10.72,10.72,0,0,0-.16,1.14c0,.35,0,.67-.06,1-.14,1.2-.77,2.15-4,3.64,3.1-.43,4,.18,4.52.85s.71,1.38,2.41,1c2.11,1.29,2.62,3.17,3.19,5.16s1.43,4,3.6,5.33a56.14,56.14,0,0,0,4.94,3.36A12.14,12.14,0,0,0,230,32c-1.69,1.45-3.11,2.75-4.46,4.16.22,2.39,2.32,1.74,3.87,1.39a9.26,9.26,0,0,1,4.4,4.5c.29.51.56,1,.83,1.57s.61,1,.91,1.53a18,18,0,0,0,1.91,2.69,40.83,40.83,0,0,1,3.68-2.27c-.11.69-.25,1.36-.34,2s-.15,1.34-.18,2.08l2,2.71c1.39-.45,2.82-1,4.27-1.52s3-1.22,4.41-1.89a9.23,9.23,0,0,0,1.3.64l.67.3a2.89,2.89,0,0,1,.5.22c-1.22,1.45-2.7,3.06-3.91,4.53,2.21-.83,3.09-1.06,3.49-.6s.2,1.44,0,2.54a6.78,6.78,0,0,0-.22,2.94c.25.67.94.86,2.48,0-3.52,3.85-2.46,5.55-.65,3.94.09.53,0,1.29.06,1.84-2.11,3.54-4.2,7.11-6.17,10.78.65,2,1.43,4.07,2.28,6,1.06.56,2.2.76,3.18,1.24,3.14-3.78,6.18-7.67,8.94-11.72.6-2.32,1.11-4.32,1.78-6.59,2.74-3.24,3.25-2.7,3.84-2.19a20.29,20.29,0,0,0,.15,2.14c1-1.13,2-2.28,2.9-3.46-.18,1.45-.23,2.61-.32,3.7,1.65-.59,3.21-1.28,4.63-1.75-.11,3.3-.16,7,0,10.34A28.88,28.88,0,0,0,279.19,75.4Z"/><path class="cls-5" d="M259.61,64.11c-.43-.43-.83-.89-1.25-1.33a36.31,36.31,0,0,1-3.42,2.57c-.1-.55,0-1.31-.06-1.84-1.81,1.61-2.87-.09.65-3.94-1.54.89-2.23.7-2.48,0a6.78,6.78,0,0,1,.22-2.94c.21-1.1.39-2.11,0-2.54s-1.28-.23-3.49.6c1.21-1.47,2.69-3.08,3.91-4.53a2.89,2.89,0,0,0-.5-.22l-.67-.3a9.23,9.23,0,0,1-1.3-.64c-3.35,2.24-6.41,3.44-8,4.38-.22-.29-.43-.58-.71-1l-2-2.71c0-.74.1-1.42.18-2.08s.23-1.35.34-2a40.83,40.83,0,0,0-3.68,2.27,18,18,0,0,1-1.91-2.69c-.3-.5-.62-1-.91-1.53s-.54-1.06-.83-1.57a9.26,9.26,0,0,0-4.4-4.5c-1.55.35-3.65,1-3.87-1.39,1.35-1.41,2.77-2.71,4.46-4.16a12.14,12.14,0,0,1-.69-1.42,56.14,56.14,0,0,1-4.94-3.36c-2.17-1.36-2.89-3.41-3.6-5.33s-1.08-3.87-3.19-5.16c-1.7.35-1.89-.37-2.41-1s-1.42-1.28-4.52-.85c3.28-1.49,3.91-2.44,4-3.64,0-.3,0-.62.06-1a10.72,10.72,0,0,1,.16-1.14,8.62,8.62,0,0,1,1.27-3c.54-1.19,1.08-2.32,1.63-3.43S219,.39,219.61-.79c0-1.25-2.77-.72-5-.62a3.5,3.5,0,0,1-2.46-.46c-.41-.44-.2-1.34,1-2.82.81-1.12,1.62-2.23,2.44-3.31.17-.52.34-1,.52-1.57s.42-1.11.64-1.67c.43-1.11.9-2.21,1.44-3.28,1.56.11,2.82.26,4.38.35.06,1.23.1,2,.14,2.69-1.82,1-3.84,2.15-5.59,3.18,3.12.18,5.93.26,9,.34-1.46,1-2.91,1.93-4.36,3,.14,1.17.36,2.27.52,3.42,1.75.28,3.12.66,3.84,1.41s.92,1.74.14,3.47c-1.75.68-3.77,1.55-5.5,2.33-1.28.69-1.49,1.21-.7,1.49s2.59.32,5.42,0c.4,1.45.69,2.63,1,3.71a60.17,60.17,0,0,1,7-2.32c-.16,1.89-5.58,3.92-4.47,5.41,3.3-.83-.08,2.82,4.66.47a24.93,24.93,0,0,0,.89,2.47c.31.82.61,1.64.93,2.48a17.74,17.74,0,0,1,3.07-.55c-.65.91-1.27,1.72-2.15,2.79-.39,1.38-.83,2.7-1.21,4.14l8.11-3.73a8.08,8.08,0,0,0,.35.8c-4.8,2.51-5.09,3.62-4.56,4.55s1.82,1.64.3,3.42c-2.13,1.24-2.5,2.46-2,3.27a2.22,2.22,0,0,0,2.55.83,7.13,7.13,0,0,1,5.23.82,7.64,7.64,0,0,0,5.92.25c-.75,1.69-1.54,3.43-2.19,5.14,2.07-.33,4.28-1,6.27-1.35-.33,1.14-.6,2.38-.91,3.55,1.86-.1,3.53-.05,5.41-.12a2,2,0,0,1-.23.79l-.44.91c.61-.19,1.17-.32,1.68-.43s.93-.36,1.37-.53a21.45,21.45,0,0,1,1.38,2.15c-1.7,2.53-1.41,2.65-.85,2.4s1.41-.86,1,.33c-.65,1.61-1.1,3-1.67,4.68,1.16-1,1.44-.51,1.75,0s.63,1,1.7-.08c-.4,1.63-.79,3.27-1.19,4.92C262.67,60.29,261.16,62.21,259.61,64.11Z"/><path class="cls-5" d="M214,49.46c-4,1.59-3.29-.89-4.46-1.74l-1.24-2.25c2-1.54,4-2.95,6.05-4.48,1.19.92,2.21,2.1,3.39,3C218.2,44.89,215.92,47.18,214,49.46Z"/><path class="cls-5" d="M213.85,39.93l-4.56-3.13a8.67,8.67,0,0,1,2.52-3.16,21.45,21.45,0,0,1,3.3-2c.38,2.43,2.37,3.58,3.8,5.27Z"/><path class="cls-5" d="M186.56-.29c3.26-1.37,6.83-2.75,10.11-4,.17,1.42.36,3,.54,4.39a11,11,0,0,1-6.84,1.7C188.21,1.6,186.55.78,186.56-.29Z"/></g></g></svg>